<?xml version="1.0" encoding="utf-8"?>
<COLLADA xmlns="http://www.collada.org/2005/11/COLLADASchema" version="1.4.1" xmlns:xsi="http://www.w3.org/2001/XMLSchema-instance">
  <asset>
    <contributor>
      <author>Blender User</author>
      <authoring_tool>Blender 4.5.0 commit date:2025-07-14, commit time:17:45, hash:8cb6b388974a</authoring_tool>
    </contributor>
    <created>2025-08-12T21:10:55</created>
    <modified>2025-08-12T21:10:55</modified>
    <unit name="meter" meter="1"/>
    <up_axis>Z_UP</up_axis>
  </asset>
  <library_effects>
    <effect id="Texture-effect">
      <profile_COMMON>
        <newparam sid="PLAYER00_png-surface">
          <surface type="2D">
            <init_from>PLAYER00_png</init_from>
          </surface>
        </newparam>
        <newparam sid="PLAYER00_png-sampler">
          <sampler2D>
            <source>PLAYER00_png-surface</source>
          </sampler2D>
        </newparam>
        <technique sid="common">
          <lambert>
            <emission>
              <color sid="emission">0 0 0 1</color>
            </emission>
            <diffuse>
              <texture texture="PLAYER00_png-sampler" texcoord="UVMap"/>
            </diffuse>
            <index_of_refraction>
              <float sid="ior">1</float>
            </index_of_refraction>
          </lambert>
        </technique>
      </profile_COMMON>
    </effect>
  </library_effects>
  <library_images>
    <image id="PLAYER00_png" name="PLAYER00_png">
      <init_from>PLAYER00.png</init_from>
    </image>
  </library_images>
  <library_materials>
    <material id="Texture-material" name="Texture">
      <instance_effect url="#Texture-effect"/>
    </material>
  </library_materials>
  <library_geometries>
    <geometry id="Grp10-mesh" name="Grp10">
      <mesh>
        <source id="Grp10-mesh-positions">
          <float_array id="Grp10-mesh-positions-array" count="18">0.1299999 -0.02999997 0.23 2.11 -0.00999999 0 0.1299999 0.17 -0.11 0.1299999 -0.02999997 0.23 0.1299999 -0.23 -0.11 0.1299999 -0.23 -0.11</float_array>
          <technique_common>
            <accessor source="#Grp10-mesh-positions-array" count="6" stride="3">
              <param name="X" type="float"/>
              <param name="Y" type="float"/>
              <param name="Z" type="float"/>
            </accessor>
          </technique_common>
        </source>
        <source id="Grp10-mesh-normals">
          <float_array id="Grp10-mesh-normals-array" count="18">0.05012673 0.8608506 0.5063828 0.9999485 0.0100252 -0.001676619 0.1059015 0.8623948 -0.4950355 0.06744873 -0.8599714 0.5058656 0.06744873 -0.8599714 0.5058656 0.05546998 0 -0.9984604</float_array>
          <technique_common>
            <accessor source="#Grp10-mesh-normals-array" count="6" stride="3">
              <param name="X" type="float"/>
              <param name="Y" type="float"/>
              <param name="Z" type="float"/>
            </accessor>
          </technique_common>
        </source>
        <source id="Grp10-mesh-map-0">
          <float_array id="Grp10-mesh-map-0-array" count="18">0 0.96875 0.03125 1 0.03125 0.96875 0 0.96875 0.03125 1 0.03125 0.96875 0 0.96875 0.03125 1 0.03125 0.96875</float_array>
          <technique_common>
            <accessor source="#Grp10-mesh-map-0-array" count="9" stride="2">
              <param name="S" type="float"/>
              <param name="T" type="float"/>
            </accessor>
          </technique_common>
        </source>
        <vertices id="Grp10-mesh-vertices">
          <input semantic="POSITION" source="#Grp10-mesh-positions"/>
        </vertices>
        <triangles material="Texture-material" count="3">
          <input semantic="VERTEX" source="#Grp10-mesh-vertices" offset="0"/>
          <input semantic="NORMAL" source="#Grp10-mesh-normals" offset="1"/>
          <input semantic="TEXCOORD" source="#Grp10-mesh-map-0" offset="2" set="0"/>
          <p>0 0 0 1 1 1 2 2 2 3 3 3 4 4 4 1 1 5 5 5 6 2 2 7 1 1 8</p>
        </triangles>
      </mesh>
    </geometry>
    <geometry id="Grp09-mesh" name="Grp09">
      <mesh>
        <source id="Grp09-mesh-positions">
          <float_array id="Grp09-mesh-positions-array" count="36">-0.00999999 0.07999998 0.21 0 -0.2 0.00999999 1.34 -0.1899999 0.00999999 1.32 0.08999997 0.21 0 -0.2 0.00999999 -0.00999999 0.07999998 -0.18 1.32 0.08999997 -0.18 1.34 -0.1899999 0.00999999 -0.00999999 0.07999998 0.21 1.32 0.08999997 0.21 1.32 0.08999997 -0.18 -0.00999999 0.07999998 -0.18</float_array>
          <technique_common>
            <accessor source="#Grp09-mesh-positions-array" count="12" stride="3">
              <param name="X" type="float"/>
              <param name="Y" type="float"/>
              <param name="Z" type="float"/>
            </accessor>
          </technique_common>
        </source>
        <source id="Grp09-mesh-normals">
          <float_array id="Grp09-mesh-normals-array" count="18">0.004352629 -0.5810783 0.813836 0.004352629 -0.5810784 0.8138361 0.004204809 -0.5613422 -0.8275731 0.004204809 -0.5613422 -0.8275731 0.004204809 -0.5613422 -0.8275732 -0.007518529 0.9999718 0</float_array>
          <technique_common>
            <accessor source="#Grp09-mesh-normals-array" count="6" stride="3">
              <param name="X" type="float"/>
              <param name="Y" type="float"/>
              <param name="Z" type="float"/>
            </accessor>
          </technique_common>
        </source>
        <source id="Grp09-mesh-map-0">
          <float_array id="Grp09-mesh-map-0-array" count="24">0.03125 1 0 1 0 0.96875 0.03125 0.96875 0.03125 1 0 1 0 0.96875 0.03125 0.96875 0.03125 1 0 1 0 0.96875 0.03125 0.96875</float_array>
          <technique_common>
            <accessor source="#Grp09-mesh-map-0-array" count="12" stride="2">
              <param name="S" type="float"/>
              <param name="T" type="float"/>
            </accessor>
          </technique_common>
        </source>
        <vertices id="Grp09-mesh-vertices">
          <input semantic="POSITION" source="#Grp09-mesh-positions"/>
        </vertices>
        <polylist material="Texture-material" count="3">
          <input semantic="VERTEX" source="#Grp09-mesh-vertices" offset="0"/>
          <input semantic="NORMAL" source="#Grp09-mesh-normals" offset="1"/>
          <input semantic="TEXCOORD" source="#Grp09-mesh-map-0" offset="2" set="0"/>
          <vcount>4 4 4 </vcount>
          <p>0 0 0 1 1 1 2 0 2 3 0 3 4 2 4 5 3 5 6 3 6 7 4 7 8 5 8 9 5 9 10 5 10 11 5 11</p>
        </polylist>
      </mesh>
    </geometry>
    <geometry id="Grp08-mesh" name="Grp08">
      <mesh>
        <source id="Grp08-mesh-positions">
          <float_array id="Grp08-mesh-positions-array" count="36">-0.06 -0.02999997 0.25 0.1299999 -0.29 -0.00999999 1.3 -0.26 -0.00999999 1.3 0 0.25 0.11 0.07999998 -0.08999997 1.29 0.11 -0.08999997 1.3 -0.26 -0.00999999 0.1299999 -0.29 -0.00999999 0.11 0.07999998 -0.08999997 -0.06 -0.02999997 0.25 1.3 0 0.25 1.29 0.11 -0.08999997</float_array>
          <technique_common>
            <accessor source="#Grp08-mesh-positions-array" count="12" stride="3">
              <param name="X" type="float"/>
              <param name="Y" type="float"/>
              <param name="Z" type="float"/>
            </accessor>
          </technique_common>
        </source>
        <source id="Grp08-mesh-normals">
          <float_array id="Grp08-mesh-normals-array" count="21">0.01669448 -0.7039518 0.7100516 0.01669448 -0.7039517 0.7100516 0.005390286 -0.211121 -0.9774451 0.005390286 -0.211121 -0.9774451 0.005390286 -0.211121 -0.9774451 0.005390286 -0.211121 -0.9774451 -0.0225057 0.9527424 0.3029447</float_array>
          <technique_common>
            <accessor source="#Grp08-mesh-normals-array" count="7" stride="3">
              <param name="X" type="float"/>
              <param name="Y" type="float"/>
              <param name="Z" type="float"/>
            </accessor>
          </technique_common>
        </source>
        <source id="Grp08-mesh-map-0">
          <float_array id="Grp08-mesh-map-0-array" count="24">0.40625 0.75 0.375 0.75 0.375 0.71875 0.40625 0.71875 0.40625 0.75 0.375 0.75 0.375 0.71875 0.40625 0.71875 0.40625 0.75 0.375 0.75 0.375 0.71875 0.40625 0.71875</float_array>
          <technique_common>
            <accessor source="#Grp08-mesh-map-0-array" count="12" stride="2">
              <param name="S" type="float"/>
              <param name="T" type="float"/>
            </accessor>
          </technique_common>
        </source>
        <vertices id="Grp08-mesh-vertices">
          <input semantic="POSITION" source="#Grp08-mesh-positions"/>
        </vertices>
        <polylist material="Texture-material" count="3">
          <input semantic="VERTEX" source="#Grp08-mesh-vertices" offset="0"/>
          <input semantic="NORMAL" source="#Grp08-mesh-normals" offset="1"/>
          <input semantic="TEXCOORD" source="#Grp08-mesh-map-0" offset="2" set="0"/>
          <vcount>4 4 4 </vcount>
          <p>0 0 0 1 0 1 2 1 2 3 0 3 4 2 4 5 3 5 6 4 6 7 5 7 8 6 8 9 6 9 10 6 10 11 6 11</p>
        </polylist>
      </mesh>
    </geometry>
    <geometry id="Grp07-mesh" name="Grp07">
      <mesh>
        <source id="Grp07-mesh-positions">
          <float_array id="Grp07-mesh-positions-array" count="120">0.86 0.08999997 -0.57 0.86 -0.61 0.01999998 0.86 0.1 0.45 1.43 0.66 0.75 1.58 1.15 0.07999998 1.37 0.77 -0.39 2.98 -1.26 -1.23 3.04 -2.75 -0.55 1.84 -1.33 -0.76 3.06 -2.79 -0.15 3.08 -1.45 0.76 1.91 -1.46 0.6 2.96 0.86 -1.03 2.99 1.59 0.04999995 3.05 0.67 0.96 -0.01999998 0.08999997 0.21 -0.01999998 -0.1899999 0.00999999 0.86 -0.1899999 0.00999999 0.86 0.1 0.21 -0.01999998 -0.1899999 0.00999999 -0.01999998 0.08999997 -0.18 0.86 0.1 -0.18 0.86 -0.1899999 0.00999999 0.86 0.08999997 -0.57 1.6 0.66 -0.57 1.76 -0.61 0.02999997 0.86 -0.61 0.01999998 1.6 0.67 0.44 1.6 0.66 -0.57 0.86 0.1 0.45 0.86 -0.61 0.01999998 1.76 -0.61 0.02999997 1.6 0.67 0.44 -0.01999998 0.08999997 0.21 0.86 0.1 0.21 0.86 0.1 -0.18 -0.01999998 0.08999997 -0.18 2.96 0.86 -1.03 2.98 -1.26 -1.23 3.04 -2.75 -0.55</float_array>
          <technique_common>
            <accessor source="#Grp07-mesh-positions-array" count="40" stride="3">
              <param name="X" type="float"/>
              <param name="Y" type="float"/>
              <param name="Z" type="float"/>
            </accessor>
          </technique_common>
        </source>
        <source id="Grp07-mesh-normals">
          <float_array id="Grp07-mesh-normals-array" count="99">-0.82866 0.5597253 -0.005514502 -1 0 0 -0.8464331 0.5324695 -0.005245983 -0.6975399 0.2368716 0.6762617 -0.5378098 0.840212 0.06931436 -0.8127588 0.3206406 -0.4864286 -0.3663146 -0.1506446 -0.9182156 -0.7104854 -0.6422547 -0.2876099 -0.7686738 -0.3251566 -0.55083 0.337977 -0.9106887 0.2375239 0.6290069 -0.2579094 0.7333711 -0.657943 -0.4449949 0.6075285 0.9988145 0.01810389 -0.04518741 0.4744179 0.8796548 0.03369081 0.5837442 0.3023208 0.7535548 0.003263711 -0.5744227 0.8185525 0.003263711 -0.5744227 0.8185524 0.003151655 -0.5546975 -0.8320462 0.003151655 -0.5546975 -0.8320462 0.003151655 -0.5546975 -0.8320462 0.1782993 -0.4981142 -0.8485822 0.1782993 -0.4981142 -0.8485822 0.1782993 -0.4981141 -0.8485822 0.1782993 -0.4981142 -0.8485822 -0.6102425 0.7921763 -0.007804691 -0.6102425 0.7921763 -0.007804691 0.1308875 -0.3765887 0.9170876 0.1308875 -0.3765887 0.9170875 0.1308875 -0.3765887 0.9170875 -0.01136285 0.9999355 0 -0.3574824 0.4502526 -0.8182169 0.9987499 0.01689761 -0.047046 0.9986647 0.01804929 -0.04840511</float_array>
          <technique_common>
            <accessor source="#Grp07-mesh-normals-array" count="33" stride="3">
              <param name="X" type="float"/>
              <param name="Y" type="float"/>
              <param name="Z" type="float"/>
            </accessor>
          </technique_common>
        </source>
        <source id="Grp07-mesh-map-0">
          <float_array id="Grp07-mesh-map-0-array" count="142">0.03125 0.46875 0 0.5 0 0.46875 0.5 0.71875 0.46875 0.75 0.46875 0.71875 0.5 0.71875 0.46875 0.75 0.46875 0.71875 0.5 0.71875 0.46875 0.75 0.46875 0.71875 0.5 0.71875 0.46875 0.75 0.46875 0.71875 0 1 0.03125 1 0.03125 0.96875 0 0.96875 0 1 0.03125 1 0.03125 0.96875 0 0.96875 0.03125 0.5 0 0.5 0 0.46875 0.03125 0.46875 0.03125 0.5 0 0.5 0 0.46875 0.03125 0.46875 0.03125 0.5 0 0.5 0 0.46875 0.03125 0.46875 0 1 0.03125 1 0.03125 0.96875 0 0.96875 0.5 0.75 0.46875 0.75 0.46875 0.71875 0.5 0.71875 0.25 0.625 0.375 0.625 0.375 0.65625 0.25 0.65625 0.5 0.75 0.46875 0.75 0.46875 0.71875 0.5 0.71875 0.375 0.65625 0.25 0.65625 0.25 0.625 0.375 0.625 0.5 0.75 0.46875 0.75 0.46875 0.71875 0.5 0.71875 0.5 0.75 0.46875 0.75 0.46875 0.71875 0.5 0.71875 0.5 0.75 0.46875 0.75 0.46875 0.71875 0.5 0.71875 0.375 0.75 0.25 0.75 0.25 0.625 0.375 0.625</float_array>
          <technique_common>
            <accessor source="#Grp07-mesh-map-0-array" count="71" stride="2">
              <param name="S" type="float"/>
              <param name="T" type="float"/>
            </accessor>
          </technique_common>
        </source>
        <vertices id="Grp07-mesh-vertices">
          <input semantic="POSITION" source="#Grp07-mesh-positions"/>
        </vertices>
        <polylist material="Texture-material" count="19">
          <input semantic="VERTEX" source="#Grp07-mesh-vertices" offset="0"/>
          <input semantic="NORMAL" source="#Grp07-mesh-normals" offset="1"/>
          <input semantic="TEXCOORD" source="#Grp07-mesh-map-0" offset="2" set="0"/>
          <vcount>3 3 3 3 3 4 4 4 4 4 4 4 4 4 4 4 4 4 4 </vcount>
          <p>0 0 0 1 1 1 2 2 2 3 3 3 4 4 4 5 5 5 6 6 6 7 7 7 8 8 8 9 9 9 10 10 10 11 11 11 12 12 12 13 13 13 14 14 14 15 15 15 16 16 16 17 16 17 18 16 18 19 17 19 20 18 20 21 19 21 22 17 22 23 20 23 24 21 24 25 22 25 26 23 26 2 2 27 27 24 28 28 25 29 0 0 30 29 26 31 30 27 32 31 28 33 32 26 34 33 29 35 34 29 36 35 29 37 36 29 38 11 11 39 8 8 40 7 7 41 9 9 42 10 10 43 14 14 44 3 3 45 11 11 46 13 13 47 37 30 48 5 5 49 4 4 50 37 30 51 6 6 52 8 8 53 5 5 54 14 14 55 10 10 56 38 31 57 12 12 58 38 31 59 10 10 60 9 9 61 39 32 62 4 4 63 3 3 64 14 14 65 13 13 66 5 5 67 8 8 68 11 11 69 3 3 70</p>
        </polylist>
      </mesh>
    </geometry>
    <geometry id="Grp06-mesh" name="Grp06">
      <mesh>
        <source id="Grp06-mesh-positions">
          <float_array id="Grp06-mesh-positions-array" count="84">-0.21 0.58 0 -0.22 -0.36 0 0.11 -0.36 0.1899999 0.1 0.58 0.18 0.1 0.58 -0.18 0.11 -0.36 -0.1899999 -0.22 -0.36 0 -0.21 0.58 0 0.1 0.58 0.18 0.11 -0.36 0.1899999 0.11 -0.36 -0.1899999 0.1 0.58 -0.18 -0.06 -2.25 0.46 0.42 -2.27 0.41 0.5 -0.38 0.62 -0.27 -0.36 0.7 0.42 -2.27 0.41 0.32 -2.28 -0.49 0.35 -0.4 -0.76 0.5 -0.38 0.62 0.32 -2.28 -0.49 -0.16 -2.27 -0.44 -0.42 -0.37 -0.67 0.35 -0.4 -0.76 -0.27 -0.36 0.7 0.5 -0.38 0.62 0.35 -0.4 -0.76 -0.42 -0.37 -0.67</float_array>
          <technique_common>
            <accessor source="#Grp06-mesh-positions-array" count="28" stride="3">
              <param name="X" type="float"/>
              <param name="Y" type="float"/>
              <param name="Z" type="float"/>
            </accessor>
          </technique_common>
        </source>
        <source id="Grp06-mesh-normals">
          <float_array id="Grp06-mesh-normals-array" count="60">-0.5004976 0.004604876 0.8657256 -0.5004976 0.004604876 -0.8657256 0.9999435 0.01063764 0 0.9999434 0.01063764 0 -0.4897913 -0.6242102 0.6086594 0.0464164 -0.7412879 0.6695803 0.09914642 -0.1142676 0.9884902 -0.6268976 -0.1654717 0.7613269 0.9936168 -0.03071898 -0.108545 0.9936168 -0.03071898 -0.108545 0.9936168 -0.03071898 -0.108545 0.9936168 -0.03071898 -0.108545 -0.09606754 -0.7584826 -0.6445737 -0.6076276 -0.640628 -0.4694511 -0.7771158 -0.1815953 -0.6025896 -0.1145851 -0.1371182 -0.983905 0.03087335 0.9994215 -0.01427072 0.03087335 0.9994214 -0.01427072 0.03087335 0.9994214 -0.01427072 0.03087335 0.9994215 -0.01427072</float_array>
          <technique_common>
            <accessor source="#Grp06-mesh-normals-array" count="20" stride="3">
              <param name="X" type="float"/>
              <param name="Y" type="float"/>
              <param name="Z" type="float"/>
            </accessor>
          </technique_common>
        </source>
        <source id="Grp06-mesh-map-0">
          <float_array id="Grp06-mesh-map-0-array" count="72">0.40625 0.75 0.375 0.75 0.375 0.71875 0.40625 0.71875 0.40625 0.75 0.375 0.75 0.375 0.71875 0.40625 0.71875 0.40625 0.75 0.375 0.75 0.375 0.71875 0.40625 0.71875 0.03125 0.5 0 0.5 0 0.46875 0.03125 0.46875 0.03125 0.5 0 0.5 0 0.46875 0.03125 0.46875 0.03125 0.5 0 0.5 0 0.46875 0.03125 0.46875 0.03125 0.5 0 0.5 0 0.46875 0.03125 0.46875 0.03125 0.5 0 0.5 0 0.46875 0.03125 0.46875 0.03125 0.5 0 0.5 0 0.46875 0.03125 0.46875</float_array>
          <technique_common>
            <accessor source="#Grp06-mesh-map-0-array" count="36" stride="2">
              <param name="S" type="float"/>
              <param name="T" type="float"/>
            </accessor>
          </technique_common>
        </source>
        <vertices id="Grp06-mesh-vertices">
          <input semantic="POSITION" source="#Grp06-mesh-positions"/>
        </vertices>
        <polylist material="Texture-material" count="9">
          <input semantic="VERTEX" source="#Grp06-mesh-vertices" offset="0"/>
          <input semantic="NORMAL" source="#Grp06-mesh-normals" offset="1"/>
          <input semantic="TEXCOORD" source="#Grp06-mesh-map-0" offset="2" set="0"/>
          <vcount>4 4 4 4 4 4 4 4 4 </vcount>
          <p>0 0 0 1 0 1 2 0 2 3 0 3 4 1 4 5 1 5 6 1 6 7 1 7 8 2 8 9 3 9 10 3 10 11 2 11 12 4 12 13 5 13 14 6 14 15 7 15 16 8 16 17 9 17 18 10 18 19 11 19 20 12 20 21 13 21 22 14 22 23 15 23 21 13 24 12 4 25 15 7 26 22 14 27 21 13 28 20 12 29 13 5 30 12 4 31 24 16 32 25 17 33 26 18 34 27 19 35</p>
        </polylist>
      </mesh>
    </geometry>
    <geometry id="Grp05-mesh" name="Grp05">
      <mesh>
        <source id="Grp05-mesh-positions">
          <float_array id="Grp05-mesh-positions-array" count="36">1.32 0.08999997 -0.21 1.34 -0.1899999 -0.00999999 0 -0.2 -0.00999999 -0.00999999 0.07999998 -0.21 1.34 -0.1899999 -0.00999999 1.32 0.08999997 0.18 -0.00999999 0.07999998 0.18 0 -0.2 -0.00999999 -0.00999999 0.07999998 0.18 1.32 0.08999997 0.18 1.32 0.08999997 -0.21 -0.00999999 0.07999998 -0.21</float_array>
          <technique_common>
            <accessor source="#Grp05-mesh-positions-array" count="12" stride="3">
              <param name="X" type="float"/>
              <param name="Y" type="float"/>
              <param name="Z" type="float"/>
            </accessor>
          </technique_common>
        </source>
        <source id="Grp05-mesh-normals">
          <float_array id="Grp05-mesh-normals-array" count="18">0.004352629 -0.5810783 -0.813836 0.004352629 -0.5810784 -0.8138361 0.004204809 -0.5613422 0.8275732 0.004204809 -0.5613422 0.8275731 0.004204809 -0.5613422 0.8275731 -0.007518529 0.9999718 0</float_array>
          <technique_common>
            <accessor source="#Grp05-mesh-normals-array" count="6" stride="3">
              <param name="X" type="float"/>
              <param name="Y" type="float"/>
              <param name="Z" type="float"/>
            </accessor>
          </technique_common>
        </source>
        <source id="Grp05-mesh-map-0">
          <float_array id="Grp05-mesh-map-0-array" count="24">0.03125 1 0 1 0 0.96875 0.03125 0.96875 0.03125 1 0 1 0 0.96875 0.03125 0.96875 0.03125 1 0 1 0 0.96875 0.03125 0.96875</float_array>
          <technique_common>
            <accessor source="#Grp05-mesh-map-0-array" count="12" stride="2">
              <param name="S" type="float"/>
              <param name="T" type="float"/>
            </accessor>
          </technique_common>
        </source>
        <vertices id="Grp05-mesh-vertices">
          <input semantic="POSITION" source="#Grp05-mesh-positions"/>
        </vertices>
        <polylist material="Texture-material" count="3">
          <input semantic="VERTEX" source="#Grp05-mesh-vertices" offset="0"/>
          <input semantic="NORMAL" source="#Grp05-mesh-normals" offset="1"/>
          <input semantic="TEXCOORD" source="#Grp05-mesh-map-0" offset="2" set="0"/>
          <vcount>4 4 4 </vcount>
          <p>0 0 0 1 0 1 2 1 2 3 0 3 4 2 4 5 3 5 6 3 6 7 4 7 8 5 8 9 5 9 10 5 10 11 5 11</p>
        </polylist>
      </mesh>
    </geometry>
    <geometry id="Grp04-mesh" name="Grp04">
      <mesh>
        <source id="Grp04-mesh-positions">
          <float_array id="Grp04-mesh-positions-array" count="36">1.3 0 -0.25 1.3 -0.26 0.00999999 0.1299999 -0.29 0.00999999 -0.06 -0.02999997 -0.25 0.1299999 -0.29 0.00999999 1.3 -0.26 0.00999999 1.29 0.11 0.08999997 0.11 0.07999998 0.08999997 1.29 0.11 0.08999997 1.3 0 -0.25 -0.06 -0.02999997 -0.25 0.11 0.07999998 0.08999997</float_array>
          <technique_common>
            <accessor source="#Grp04-mesh-positions-array" count="12" stride="3">
              <param name="X" type="float"/>
              <param name="Y" type="float"/>
              <param name="Z" type="float"/>
            </accessor>
          </technique_common>
        </source>
        <source id="Grp04-mesh-normals">
          <float_array id="Grp04-mesh-normals-array" count="24">0.01669448 -0.7039517 -0.7100517 0.01669448 -0.7039517 -0.7100517 0.01669448 -0.7039517 -0.7100516 0.005390286 -0.211121 0.9774451 0.005390286 -0.211121 0.9774451 0.005390286 -0.211121 0.9774451 -0.0225057 0.9527424 -0.3029447 -0.0225057 0.9527424 -0.3029447</float_array>
          <technique_common>
            <accessor source="#Grp04-mesh-normals-array" count="8" stride="3">
              <param name="X" type="float"/>
              <param name="Y" type="float"/>
              <param name="Z" type="float"/>
            </accessor>
          </technique_common>
        </source>
        <source id="Grp04-mesh-map-0">
          <float_array id="Grp04-mesh-map-0-array" count="24">0.40625 0.75 0.375 0.75 0.375 0.71875 0.40625 0.71875 0.40625 0.75 0.375 0.75 0.375 0.71875 0.40625 0.71875 0.40625 0.75 0.375 0.75 0.375 0.71875 0.40625 0.71875</float_array>
          <technique_common>
            <accessor source="#Grp04-mesh-map-0-array" count="12" stride="2">
              <param name="S" type="float"/>
              <param name="T" type="float"/>
            </accessor>
          </technique_common>
        </source>
        <vertices id="Grp04-mesh-vertices">
          <input semantic="POSITION" source="#Grp04-mesh-positions"/>
        </vertices>
        <polylist material="Texture-material" count="3">
          <input semantic="VERTEX" source="#Grp04-mesh-vertices" offset="0"/>
          <input semantic="NORMAL" source="#Grp04-mesh-normals" offset="1"/>
          <input semantic="TEXCOORD" source="#Grp04-mesh-map-0" offset="2" set="0"/>
          <vcount>4 4 4 </vcount>
          <p>0 0 0 1 1 1 2 2 2 3 2 3 4 3 4 5 4 5 6 5 6 7 4 7 8 6 8 9 7 9 10 7 10 11 7 11</p>
        </polylist>
      </mesh>
    </geometry>
    <geometry id="Grp03-mesh" name="Grp03">
      <mesh>
        <source id="Grp03-mesh-positions">
          <float_array id="Grp03-mesh-positions-array" count="120">0.86 0.1 -0.45 0.86 -0.61 -0.01999998 0.86 0.08999997 0.57 1.43 0.68 0.62 1.62 1.1 0.17 1.43 0.66 -0.52 1.87 -1.45 0.82 3.03 -2.87 0.46 3.03 -1.43 1.24 1.87 -1.48 -0.54 3.04 -1.47 -0.75 3.03 -2.88 0.04999995 3.04 0.65 -0.8 3.04 1.5 0.16 3.04 0.69 1.2 0.86 0.1 -0.21 0.86 -0.1899999 -0.00999999 -0.01999998 -0.1899999 -0.00999999 -0.01999998 0.08999997 -0.21 0.86 -0.1899999 -0.00999999 0.86 0.1 0.18 -0.01999998 0.08999997 0.18 -0.01999998 -0.1899999 -0.00999999 0.86 0.1 -0.45 1.61 0.66 -0.44 1.76 -0.61 -0.02999997 0.86 -0.61 -0.01999998 1.61 0.65 0.57 1.61 0.66 -0.44 -0.01999998 0.08999997 0.18 0.86 0.1 0.18 0.86 0.1 -0.21 -0.01999998 0.08999997 -0.21 1.76 -0.61 -0.02999997 1.61 0.65 0.57 0.86 0.08999997 0.57 0.86 -0.61 -0.01999998 3.04 0.69 1.2 3.03 -1.43 1.24 3.03 -2.87 0.46</float_array>
          <technique_common>
            <accessor source="#Grp03-mesh-positions-array" count="40" stride="3">
              <param name="X" type="float"/>
              <param name="Y" type="float"/>
              <param name="Z" type="float"/>
            </accessor>
          </technique_common>
        </source>
        <source id="Grp03-mesh-normals">
          <float_array id="Grp03-mesh-normals-array" count="90">-0.841367 0.5404382 0.005324482 -1 1.65591e-7 0 -0.8229793 0.568044 0.005596458 -0.7829424 0.2968402 0.5467059 -0.5243741 0.8513138 0.01722496 -0.7222155 0.2963123 -0.624983 -0.7496222 -0.3506494 0.561348 -0.7087892 -0.6488946 0.2766833 -0.3291842 -0.2091049 0.920822 -0.6940087 -0.3886845 -0.6060333 0.5939698 -0.2103974 -0.7764875 0.3077809 -0.8965806 -0.3184559 0.5574698 0.3425992 -0.7562099 0.4934117 0.8697808 0.005132079 0.9999971 -0.001606583 0.001779496 0.003263711 -0.5744227 -0.8185524 0.003263711 -0.5744227 -0.8185524 0.003263711 -0.5744227 -0.8185525 0.003151655 -0.5546975 0.8320462 0.003151655 -0.5546975 0.8320462 0.003151655 -0.5546975 0.8320462 0.1286405 -0.3790299 -0.9163994 0.1286405 -0.3790299 -0.9163995 -0.5983044 0.8012301 0.00789386 -0.5983044 0.8012301 0.00789386 -0.01136285 0.9999355 0 0.1752123 -0.5011177 0.847456 -0.3119283 0.3932009 0.8649241 0.9999909 -0.002775788 0.003229498 0.999985 -0.003478944 0.004239022</float_array>
          <technique_common>
            <accessor source="#Grp03-mesh-normals-array" count="30" stride="3">
              <param name="X" type="float"/>
              <param name="Y" type="float"/>
              <param name="Z" type="float"/>
            </accessor>
          </technique_common>
        </source>
        <source id="Grp03-mesh-map-0">
          <float_array id="Grp03-mesh-map-0-array" count="142">0.03125 0.46875 0 0.5 0 0.46875 0.5 0.71875 0.46875 0.75 0.46875 0.71875 0.5 0.71875 0.46875 0.75 0.46875 0.71875 0.5 0.71875 0.46875 0.75 0.46875 0.71875 0.5 0.71875 0.46875 0.75 0.46875 0.71875 0 1 0.03125 1 0.03125 0.96875 0 0.96875 0 1 0.03125 1 0.03125 0.96875 0 0.96875 0.03125 0.5 0 0.5 0 0.46875 0.03125 0.46875 0.03125 0.5 0 0.5 0 0.46875 0.03125 0.46875 0 1 0.03125 1 0.03125 0.96875 0 0.96875 0.03125 0.5 0 0.5 0 0.46875 0.03125 0.46875 0.5 0.75 0.46875 0.75 0.46875 0.71875 0.5 0.71875 0.25 0.625 0.375 0.625 0.375 0.65625 0.25 0.65625 0.5 0.75 0.46875 0.75 0.46875 0.71875 0.5 0.71875 0.375 0.65625 0.25 0.65625 0.25 0.625 0.375 0.625 0.5 0.75 0.46875 0.75 0.46875 0.71875 0.5 0.71875 0.5 0.75 0.46875 0.75 0.46875 0.71875 0.5 0.71875 0.5 0.75 0.46875 0.75 0.46875 0.71875 0.5 0.71875 0.375 0.625 0.25 0.625 0.25 0.75 0.375 0.75</float_array>
          <technique_common>
            <accessor source="#Grp03-mesh-map-0-array" count="71" stride="2">
              <param name="S" type="float"/>
              <param name="T" type="float"/>
            </accessor>
          </technique_common>
        </source>
        <vertices id="Grp03-mesh-vertices">
          <input semantic="POSITION" source="#Grp03-mesh-positions"/>
        </vertices>
        <polylist material="Texture-material" count="19">
          <input semantic="VERTEX" source="#Grp03-mesh-vertices" offset="0"/>
          <input semantic="NORMAL" source="#Grp03-mesh-normals" offset="1"/>
          <input semantic="TEXCOORD" source="#Grp03-mesh-map-0" offset="2" set="0"/>
          <vcount>3 3 3 3 3 4 4 4 4 4 4 4 4 4 4 4 4 4 4 </vcount>
          <p>0 0 0 1 1 1 2 2 2 3 3 3 4 4 4 5 5 5 6 6 6 7 7 7 8 8 8 9 9 9 10 10 10 11 11 11 12 12 12 13 13 13 14 14 14 15 15 15 16 16 16 17 16 17 18 17 18 19 18 19 20 19 20 21 20 21 22 18 22 23 21 23 24 21 24 25 22 25 26 21 26 2 2 27 27 23 28 28 24 29 0 0 30 29 25 31 30 25 32 31 25 33 32 25 34 33 26 35 34 26 36 35 26 37 36 26 38 11 11 39 7 7 40 6 6 41 9 9 42 9 9 43 5 5 44 12 12 45 10 10 46 4 4 47 3 3 48 37 27 49 13 13 50 3 3 51 6 6 52 8 8 53 37 27 54 14 14 55 38 28 56 10 10 57 12 12 58 39 29 59 11 11 60 10 10 61 38 28 62 13 13 63 12 12 64 5 5 65 4 4 66 5 5 67 9 9 68 6 6 69 3 3 70</p>
        </polylist>
      </mesh>
    </geometry>
    <geometry id="Grp02-mesh" name="Grp02">
      <mesh>
        <source id="Grp02-mesh-positions">
          <float_array id="Grp02-mesh-positions-array" count="84">0.1 0.58 -0.18 0.11 -0.36 -0.1899999 -0.22 -0.36 0 -0.21 0.58 0 -0.21 0.58 0 -0.22 -0.36 0 0.11 -0.36 0.1899999 0.1 0.58 0.18 0.1 0.58 0.18 0.11 -0.36 0.1899999 0.11 -0.36 -0.1899999 0.1 0.58 -0.18 0.06999999 -0.43 -0.85 0.71 -0.39 -0.42 0.61 -2.26 -0.06999999 0.2 -2.29 -0.35 0.71 -0.39 -0.42 -0.04999995 -0.31 0.72 0.11 -2.21 0.67 0.61 -2.26 -0.06999999 -0.04999995 -0.31 0.72 -0.7 -0.36 0.29 -0.29 -2.23 0.4 0.11 -2.21 0.67 -0.7 -0.36 0.29 -0.04999995 -0.31 0.72 0.71 -0.39 -0.42 0.06999999 -0.43 -0.85</float_array>
          <technique_common>
            <accessor source="#Grp02-mesh-positions-array" count="28" stride="3">
              <param name="X" type="float"/>
              <param name="Y" type="float"/>
              <param name="Z" type="float"/>
            </accessor>
          </technique_common>
        </source>
        <source id="Grp02-mesh-normals">
          <float_array id="Grp02-mesh-normals-array" count="54">-0.5004976 0.004604876 -0.8657256 -0.5004976 0.004604876 0.8657256 0.9999435 0.01063764 0 0.9999434 0.01063764 0 -0.1917 -0.2717266 -0.9430885 0.5592123 -0.1799194 -0.8092655 0.3778852 -0.7878762 -0.4862653 -0.1326628 -0.7061671 -0.6955061 0.8311523 0.05724036 0.5530908 0.8311523 0.05724036 0.5530908 0.8311524 0.05724042 0.5530908 -0.5501108 -0.0699293 0.8321588 -0.9602995 -0.1937915 0.2006732 -0.7352002 -0.6449834 0.2085117 -0.3590815 -0.7116103 0.6038802 -0.01784312 0.9968284 -0.07755452 -0.01784312 0.9968285 -0.07755452 -0.01784312 0.9968284 -0.07755452</float_array>
          <technique_common>
            <accessor source="#Grp02-mesh-normals-array" count="18" stride="3">
              <param name="X" type="float"/>
              <param name="Y" type="float"/>
              <param name="Z" type="float"/>
            </accessor>
          </technique_common>
        </source>
        <source id="Grp02-mesh-map-0">
          <float_array id="Grp02-mesh-map-0-array" count="72">0.40625 0.75 0.375 0.75 0.375 0.71875 0.40625 0.71875 0.40625 0.75 0.375 0.75 0.375 0.71875 0.40625 0.71875 0.40625 0.75 0.375 0.75 0.375 0.71875 0.40625 0.71875 0.03125 0.5 0 0.5 0 0.46875 0.03125 0.46875 0.03125 0.5 0 0.5 0 0.46875 0.03125 0.46875 0.03125 0.5 0 0.5 0 0.46875 0.03125 0.46875 0.03125 0.5 0 0.5 0 0.46875 0.03125 0.46875 0.03125 0.5 0 0.5 0 0.46875 0.03125 0.46875 0.03125 0.5 0 0.5 0 0.46875 0.03125 0.46875</float_array>
          <technique_common>
            <accessor source="#Grp02-mesh-map-0-array" count="36" stride="2">
              <param name="S" type="float"/>
              <param name="T" type="float"/>
            </accessor>
          </technique_common>
        </source>
        <vertices id="Grp02-mesh-vertices">
          <input semantic="POSITION" source="#Grp02-mesh-positions"/>
        </vertices>
        <polylist material="Texture-material" count="9">
          <input semantic="VERTEX" source="#Grp02-mesh-vertices" offset="0"/>
          <input semantic="NORMAL" source="#Grp02-mesh-normals" offset="1"/>
          <input semantic="TEXCOORD" source="#Grp02-mesh-map-0" offset="2" set="0"/>
          <vcount>4 4 4 4 4 4 4 4 4 </vcount>
          <p>0 0 0 1 0 1 2 0 2 3 0 3 4 1 4 5 1 5 6 1 6 7 1 7 8 2 8 9 3 9 10 3 10 11 2 11 12 4 12 13 5 13 14 6 14 15 7 15 16 8 16 17 8 17 18 9 18 19 10 19 20 11 20 21 12 21 22 13 22 23 14 23 21 12 24 12 4 25 15 7 26 22 13 27 15 7 28 14 6 29 23 14 30 22 13 31 24 15 32 25 15 33 26 16 34 27 17 35</p>
        </polylist>
      </mesh>
    </geometry>
    <geometry id="Grp01-mesh" name="Grp01">
      <mesh>
        <source id="Grp01-mesh-positions">
          <float_array id="Grp01-mesh-positions-array" count="183">-1.14 -0.4 1.58 0 -0.28 1.64 0 0.12 0 -1.85 -1.77 2.29 0 -1.36 2.61 -5.37 -2.96 3.42 0 -3.38 2.61 -0.67 -4.85 1.61 -1.62 -0.4 0 -4.21 0.02999997 2.63 -5.3 -1.27 0 -2.24 -3.64 0.9 -2.19 -2.25 1.25 -1.14 -0.4 -1.58 -1.85 -1.77 -2.29 -4.21 0.02999997 -2.49 -2.24 -3.64 -0.9 -2.19 -2.25 -1.25 -5.37 -2.96 -3.42 0 -0.28 -1.64 0 -1.36 -2.61 0 -3.38 -2.61 -0.67 -4.85 -1.61 1.92 -0.28 -1.14 1.13 -4.85 -1.14 -1.3 -6.04 0 2.3 -0.29 0 1.61 -4.66 0 1.92 -0.28 1.13 1.13 -4.85 1.14 0.56 -5.99 2.93 -2.19 -2.25 -1.25 -2.19 -2.25 1.25 -2.19 -2.25 1.25 -2.19 -2.25 -1.25 -2.23 -1.28 0 -2.23 -1.28 0 -5.5 -6.25 0.00999999 0.56 -5.97 -2.93 0.56 -5.97 -2.93 0.11 -4.34 -1.87 0.56 -5.99 2.93 0.11 -4.34 1.87 2.14 -0.64 1.61 2.14 -0.63 -1.61 3.61 -1.45 0 3.08 -1.72 0.25 3.08 -1.72 -0.24 1.96 -0.96 -1.84 1.96 -3.38 -1.84 2.9 -0.96 0 2.73 -1.28 0 2.73 -3.07 0 1.96 -0.96 1.84 1.96 -3.38 1.84 2.87 -1 0 2.79 -1.15 -0.04999995 2.79 -1.15 0.04999995 2.87 -1 0 2.79 -1.15 -0.04999995 2.79 -1.15 0.04999995</float_array>
          <technique_common>
            <accessor source="#Grp01-mesh-positions-array" count="61" stride="3">
              <param name="X" type="float"/>
              <param name="Y" type="float"/>
              <param name="Z" type="float"/>
            </accessor>
          </technique_common>
        </source>
        <source id="Grp01-mesh-normals">
          <float_array id="Grp01-mesh-normals-array" count="183">-0.03564465 0.8664106 0.4980584 -0.001585662 0.8494068 0.5277363 -0.06425935 0.9979333 1.50982e-4 -0.1675483 0.3135732 0.9346655 0.04823696 0.317541 0.9470168 -0.9145368 0.02607482 0.4036614 0.1891093 -0.2009271 0.9611796 -0.2646274 -0.7663668 0.5853668 -0.3372436 0.9414111 0.003481209 -0.782583 0.4048146 0.472958 -0.9301503 0.367179 0 -0.9351023 -0.2946546 0.196882 -0.307398 0.2086864 0.9284162 -0.04242193 0.8641592 -0.5014273 -0.1796638 0.3264994 -0.9279651 -0.7977649 0.4119963 -0.4402617 -0.9345571 -0.2964925 -0.1967115 -0.5401447 0.5924435 0.5977076 -0.9145367 0.0260747 -0.4036617 -0.002338767 0.8491299 -0.5281789 0.04798799 0.3169167 -0.9472386 0.1890755 -0.2008347 -0.9612054 -0.2637 -0.7666653 -0.5853945 0.3698449 0.8816053 -0.2932355 0.5615015 -0.7461595 -0.3577179 0.1390563 -0.9902842 -7.51997e-4 0.5241159 0.851646 0.001331031 0.6904636 -0.7233672 0 0.3716277 0.880344 0.2947663 0.5619913 -0.7458887 0.3575136 -0.6776905 -0.7353386 -0.003580987 -0.7441316 -0.6678471 -0.01576191 -0.5401448 0.5924436 -0.5977076 -0.7461355 -0.6657488 0.007763385 -0.307398 0.2086863 -0.9284162 0.003257274 0.9999947 0 -0.9995329 0.02771884 0.01286774 -0.9218582 -0.3875221 0.002027392 -0.6753205 -0.7375161 -0.003504455 0.8506026 0.4308414 -0.3014152 0.8265237 -0.04182583 -0.5613459 0.8507488 0.4279896 0.3050432 0.8261724 -0.04367232 0.5617224 0.6644042 0.4162852 0.6207042 0.6618849 0.4216983 -0.619741 0.9943633 0.1059556 -0.003900229 -0.1839029 -0.6219676 0.7611413 -0.1860895 -0.6284012 -0.755303 0.5800858 0.2246599 -0.7829614 0.6824669 -0.3064159 -0.6635875 0.9902917 0.1390038 4.96148e-4 0.9864707 -0.1639376 -1.68245e-4 0.9662024 -0.2577847 0 0.5788909 0.2273524 0.7830685 0.6824669 -0.3064159 0.6635875 0.1872147 0.3593481 -0.9142317 0.1872147 0.3593482 -0.9142317 0.1912339 0.3712692 0.9086192 0.1912339 0.3712692 0.9086192 -0.8912782 -0.4534571 0 -0.8912782 -0.453457 0</float_array>
          <technique_common>
            <accessor source="#Grp01-mesh-normals-array" count="61" stride="3">
              <param name="X" type="float"/>
              <param name="Y" type="float"/>
              <param name="Z" type="float"/>
            </accessor>
          </technique_common>
        </source>
        <source id="Grp01-mesh-map-0">
          <float_array id="Grp01-mesh-map-0-array" count="490">0.03125 0.96875 0 1 0 0.96875 0.03125 0.96875 0 1 0 0.96875 0.03125 0.96875 0 1 0 0.96875 0.03125 0.96875 0 1 0 0.96875 0.03125 0.96875 0 1 0 0.96875 0.03125 0.96875 0 1 0 0.96875 0.03125 0.96875 0 1 0 0.96875 0.03125 0.96875 0 1 0 0.96875 0.03125 0.96875 0 1 0 0.96875 0.03125 0.96875 0 1 0 0.96875 0.03125 0.96875 0 1 0 0.96875 0.03125 0.96875 0 1 0 0.96875 0.03125 0.96875 0 1 0 0.96875 0.03125 0.96875 0 1 0 0.96875 0.40625 0.71875 0.375 0.75 0.375 0.71875 0.03125 0.96875 0 1 0 0.96875 0.40625 0.71875 0.375 0.75 0.375 0.71875 0.03125 0.96875 0 1 0 0.96875 0.40625 0.71875 0.375 0.75 0.375 0.71875 0.03125 0.96875 0 1 0 0.96875 0.40625 0.71875 0.375 0.75 0.375 0.71875 0.03125 0.96875 0 1 0 0.96875 0.03125 0.96875 0 1 0 0.96875 0.03125 0.96875 0 1 0 0.96875 0.03125 0.96875 0 1 0 0.96875 0.03125 0.96875 0 1 0 0.96875 0.03125 0.96875 0 1 0 0.96875 0.03125 0.96875 0 1 0 0.96875 0.03125 0.96875 0 1 0 0.96875 0.03125 0.96875 0 1 0 0.96875 0.03125 0.96875 0 1 0 0.96875 0.03125 0.96875 0 1 0 0.96875 0.03125 0.96875 0 1 0 0.96875 0.03125 0.96875 0 1 0 0.96875 0.03125 0.96875 0 1 0 0.96875 0.03125 0.96875 0 1 0 0.96875 0.03125 0.96875 0 1 0 0.96875 0.03125 0.96875 0 1 0 0.96875 0.03125 0.96875 0 1 0 0.96875 0.03125 0.96875 0 1 0 0.96875 0.03125 0.96875 0 1 0 0.96875 0.03125 0.96875 0 1 0 0.96875 0.03125 0.96875 0 1 0 0.96875 0.03125 0.96875 0 1 0 0.96875 0.03125 0.96875 0 1 0 0.96875 0.375 0.71875 0.40625 0.75 0.375 0.75 0.03125 0.96875 0 1 0 0.96875 0.03125 0.96875 0 1 0 0.96875 0.03125 0.96875 0 1 0 0.96875 0.03125 0.96875 0 1 0 0.96875 0.03125 0.96875 0 1 0 0.96875 0.03125 0.96875 0 1 0 0.96875 0.375 0.71875 0.40625 0.75 0.375 0.75 0.03125 0.96875 0 1 0 0.96875 0.40625 0.71875 0.375 0.75 0.375 0.71875 0.40625 0.71875 0.375 0.75 0.375 0.71875 0.28125 0.46875 0.25 0.5 0.25 0.46875 0.375 0.71875 0.40625 0.75 0.375 0.75 0.375 0.71875 0.40625 0.75 0.375 0.75 0.40625 0.75 0.375 0.75 0.375 0.71875 0.40625 0.71875 0.625 0.875 0.5 0.875 0.5 1 0.625 1 0.875 0.875 0.75 0.875 0.75 1 0.875 1 0.40625 0.75 0.375 0.75 0.375 0.71875 0.40625 0.71875 0.125 0.875 0 0.875 0 1 0.125 1 0.375 0.8710938 0.25 0.8710938 0.25 1 0.375 1 0.40625 0.75 0.375 0.75 0.375 0.71875 0.40625 0.71875 0 0.875 0.125 0.875 0.125 1 0 1 0.25 0.8710938 0.375 0.8710938 0.375 1 0.25 1 0.40625 0.75 0.375 0.75 0.375 0.71875 0.40625 0.71875 0.5 0.875 0.625 0.875 0.625 1 0.5 1 0.75 1 0.75 0.875 0.875 0.875 0.875 1 0.40625 0.75 0.375 0.75 0.375 0.71875 0.40625 0.71875 0.40625 0.75 0.375 0.75 0.375 0.71875 0.40625 0.71875 0.28125 0.5 0.25 0.5 0.25 0.46875 0.28125 0.46875 0.28125 0.5 0.25 0.5 0.25 0.46875 0.28125 0.46875 0.28125 0.5 0.25 0.5 0.25 0.5 0.28125 0.5</float_array>
          <technique_common>
            <accessor source="#Grp01-mesh-map-0-array" count="245" stride="2">
              <param name="S" type="float"/>
              <param name="T" type="float"/>
            </accessor>
          </technique_common>
        </source>
        <vertices id="Grp01-mesh-vertices">
          <input semantic="POSITION" source="#Grp01-mesh-positions"/>
        </vertices>
        <polylist material="Texture-material" count="76">
          <input semantic="VERTEX" source="#Grp01-mesh-vertices" offset="0"/>
          <input semantic="NORMAL" source="#Grp01-mesh-normals" offset="1"/>
          <input semantic="TEXCOORD" source="#Grp01-mesh-map-0" offset="2" set="0"/>
          <vcount>3 3 3 3 3 3 3 3 3 3 3 3 3 3 3 3 3 3 3 3 3 3 3 3 3 3 3 3 3 3 3 3 3 3 3 3 3 3 3 3 3 3 3 3 3 3 3 3 3 3 3 3 3 3 3 3 3 3 3 4 4 4 4 4 4 4 4 4 4 4 4 4 4 4 4 4 </vcount>
          <p>0 0 0 1 1 1 2 2 2 0 0 3 3 3 4 4 4 5 3 3 6 5 5 7 6 6 8 6 6 9 5 5 10 7 7 11 8 8 12 0 0 13 2 2 14 9 9 15 3 3 16 0 0 17 10 10 18 11 11 19 12 12 20 13 13 21 8 8 22 2 2 23 13 13 24 14 14 25 15 15 26 16 16 27 17 17 28 18 18 29 19 19 30 13 13 31 2 2 32 13 13 33 19 19 34 20 20 35 14 14 36 20 20 37 21 21 38 18 18 39 21 21 40 22 22 41 23 23 42 19 19 43 2 2 44 22 22 45 24 24 46 25 25 47 26 26 48 23 23 49 2 2 50 24 24 51 27 27 52 25 25 53 28 28 54 26 26 55 2 2 56 27 27 57 29 29 58 25 25 59 1 1 60 28 28 61 2 2 62 7 7 63 29 29 64 30 30 65 29 29 66 7 7 67 25 25 68 6 6 69 4 4 70 3 3 71 21 21 72 18 18 73 14 14 74 15 15 75 14 14 76 31 31 77 5 5 78 3 3 79 32 32 80 5 5 81 32 32 82 11 11 83 17 17 84 14 14 85 18 18 86 33 33 87 3 3 88 9 9 89 34 34 90 16 16 91 10 10 92 12 12 93 35 35 94 10 10 95 10 10 96 35 35 97 34 34 98 31 31 99 36 36 100 15 15 101 9 9 102 36 36 103 33 33 104 15 15 105 36 36 106 8 8 107 15 15 108 8 8 109 13 13 110 8 8 111 36 36 112 9 9 113 0 0 114 8 8 115 9 9 116 10 10 117 16 16 118 11 11 119 37 37 120 11 11 121 16 16 122 4 4 123 1 1 124 0 0 125 20 20 126 14 14 127 13 13 128 22 22 129 21 21 130 38 38 131 38 38 132 24 24 133 22 22 134 39 39 135 21 21 136 40 40 137 37 37 138 25 25 139 7 7 140 7 7 141 11 11 142 37 37 143 5 5 144 11 11 145 7 7 146 22 22 147 25 25 148 37 37 149 37 37 150 16 16 151 22 22 152 22 22 153 16 16 154 18 18 155 41 41 156 29 29 157 42 42 158 7 7 159 30 30 160 6 6 161 43 43 162 28 28 163 1 1 164 19 19 165 23 23 166 44 44 167 45 45 168 46 46 169 47 47 170 42 42 171 6 6 172 41 41 173 40 40 174 24 24 175 39 39 176 44 44 177 48 48 178 20 20 179 19 19 180 20 20 181 48 48 182 49 49 183 21 21 184 21 21 185 49 49 186 24 24 187 40 40 188 48 48 189 44 44 190 50 50 191 51 51 192 48 48 193 51 51 194 52 52 195 49 49 196 49 49 197 52 52 198 27 27 199 24 24 200 50 50 201 43 43 202 53 53 203 51 51 204 51 51 205 53 53 206 54 54 207 52 52 208 52 52 209 54 54 210 29 29 211 27 27 212 1 1 213 4 4 214 53 53 215 43 43 216 53 53 217 4 4 218 6 6 219 54 54 220 29 29 221 54 54 222 6 6 223 42 42 224 44 44 225 23 23 226 26 26 227 50 50 228 50 50 229 26 26 230 28 28 231 43 43 232 55 55 233 45 45 234 47 47 235 56 56 236 57 57 237 46 46 238 45 45 239 58 58 240 59 59 241 47 47 242 46 46 243 60 60 244</p>
        </polylist>
      </mesh>
    </geometry>
    <geometry id="Grp00-mesh" name="Grp00">
      <mesh>
        <source id="Grp00-mesh-positions">
          <float_array id="Grp00-mesh-positions-array" count="102">1.18 -0.7 0.62 1.47 -0.29 0 2.65 -0.28 1.13 1.18 -0.96 0 1.2 0.81 0 0.45 0.94 1.01 2.65 -0.28 -1.13 1.19 -0.29 -0.89 0.44 -0.06999999 -1.44 0.45 0.94 -1.01 0.46 1.36 0 1.18 -0.7 -0.62 0.44 -0.06999999 1.44 1.19 -0.29 0.89 -0.46 0.95 1.01 -0.47 -0.06 1.44 -1.08 0.67 0.73 -1.09 -0.06 1.04 -0.46 1.37 0 -1.08 0.97 0 -1.51 -0.04999995 0 -1.08 0.67 -0.73 -0.46 0.95 -1.01 -0.47 -0.06 -1.44 -1.09 -0.06 -1.04 -1.1 -0.79 -0.73 0.43 -1.09 -1.01 -0.49 -1.08 -1.01 0.42 -1.51 0 -0.49 -1.5 0 -1.1 -1.1 0 -1.1 -0.79 0.73 0.43 -1.09 1.01 -0.49 -1.08 1.01</float_array>
          <technique_common>
            <accessor source="#Grp00-mesh-positions-array" count="34" stride="3">
              <param name="X" type="float"/>
              <param name="Y" type="float"/>
              <param name="Z" type="float"/>
            </accessor>
          </technique_common>
        </source>
        <source id="Grp00-mesh-normals">
          <float_array id="Grp00-mesh-normals-array" count="102">0.5574803 -0.6905109 0.4608802 0.9066107 -0.4219682 0 0.8988623 -0.1536776 0.4104021 0.749759 -0.661711 0 0.6384044 0.7697011 0 0.2489508 0.6871807 0.6825 0.8988623 -0.1536776 -0.4104022 0.25959 -0.2565177 -0.9310274 0.3027357 0.008416116 -0.9530375 0.2489508 0.6871806 -0.6825001 0.3000435 0.9539256 0 0.5574803 -0.6905109 -0.4608802 0.3027358 0.008416116 0.9530375 0.25959 -0.2565177 0.9310274 -0.259672 0.6872184 0.6784552 -0.2653371 0.00579971 0.9641383 -0.7565562 0.4675379 0.4571992 -0.7339625 0.009127318 0.6791288 -0.2591969 0.9658246 0 -0.7292571 0.6842399 0 -0.9999002 0.01413589 0 -0.7565562 0.4675379 -0.4571992 -0.2596719 0.6872184 -0.6784551 -0.2653371 0.00579971 -0.9641383 -0.7339625 0.009127318 -0.6791288 -0.7671016 -0.4493137 -0.4579001 0.2740589 -0.6899082 -0.6700138 -0.2737351 -0.6800162 -0.6801817 0.2827798 -0.959185 0 -0.275662 -0.9612547 0 -0.7407859 -0.6717413 0 -0.7671016 -0.4493136 0.4579001 0.2740589 -0.6899082 0.6700137 -0.2737351 -0.6800162 0.6801818</float_array>
          <technique_common>
            <accessor source="#Grp00-mesh-normals-array" count="34" stride="3">
              <param name="X" type="float"/>
              <param name="Y" type="float"/>
              <param name="Z" type="float"/>
            </accessor>
          </technique_common>
        </source>
        <source id="Grp00-mesh-map-0">
          <float_array id="Grp00-mesh-map-0-array" count="280">0.03125 0.96875 0 1 0 0.96875 0.03125 0.96875 0 1 0 0.96875 0.03125 0.96875 0 1 0 0.96875 0.03125 0.96875 0 1 0 0.96875 0.03125 0.96875 0 1 0 0.96875 0.03125 0.96875 0 1 0 0.96875 0.03125 0.96875 0 1 0 0.96875 0.03125 0.96875 0 1 0 0.96875 0.03125 0.96875 0 1 0 0.96875 0.03125 0.96875 0 1 0 0.96875 0.03125 0.96875 0 1 0 0.96875 0.03125 0.96875 0 1 0 0.96875 0.03125 1 0 1 0 0.96875 0.03125 0.96875 0.03125 1 0 1 0 0.96875 0.03125 0.96875 0.03125 1 0 1 0 0.96875 0.03125 0.96875 0.03125 1 0 1 0 0.96875 0.03125 0.96875 0.03125 1 0 1 0 0.96875 0.03125 0.96875 0.40625 0.75 0.375 0.75 0.375 0.71875 0.40625 0.71875 0.03125 1 0 1 0 0.96875 0.03125 0.96875 0.03125 1 0 1 0 0.96875 0.03125 0.96875 0.03125 1 0 1 0 0.96875 0.03125 0.96875 0.03125 1 0 1 0 0.96875 0.03125 0.96875 0.03125 1 0 1 0 0.96875 0.03125 0.96875 0.40625 0.75 0.375 0.75 0.375 0.71875 0.40625 0.71875 0.03125 1 0 1 0 0.96875 0.03125 0.96875 0.03125 1 0 1 0 0.96875 0.03125 0.96875 0.03125 1 0 1 0 0.96875 0.03125 0.96875 0.03125 1 0 1 0 0.96875 0.03125 0.96875 0.03125 1 0 1 0 0.96875 0.03125 0.96875 0.03125 1 0 1 0 0.96875 0.03125 0.96875 0.40625 0.75 0.375 0.75 0.375 0.71875 0.40625 0.71875 0.03125 1 0 1 0 0.96875 0.03125 0.96875 0.03125 1 0 1 0 0.96875 0.03125 0.96875 0.03125 1 0 1 0 0.96875 0.03125 0.96875 0.03125 1 0 1 0 0.96875 0.03125 0.96875 0.03125 1 0 1 0 0.96875 0.03125 0.96875 0.03125 1 0 1 0 0.96875 0.03125 0.96875 0.40625 0.75 0.375 0.75 0.375 0.71875 0.40625 0.71875</float_array>
          <technique_common>
            <accessor source="#Grp00-mesh-map-0-array" count="140" stride="2">
              <param name="S" type="float"/>
              <param name="T" type="float"/>
            </accessor>
          </technique_common>
        </source>
        <vertices id="Grp00-mesh-vertices">
          <input semantic="POSITION" source="#Grp00-mesh-positions"/>
        </vertices>
        <polylist material="Texture-material" count="38">
          <input semantic="VERTEX" source="#Grp00-mesh-vertices" offset="0"/>
          <input semantic="NORMAL" source="#Grp00-mesh-normals" offset="1"/>
          <input semantic="TEXCOORD" source="#Grp00-mesh-map-0" offset="2" set="0"/>
          <vcount>3 3 3 3 3 3 3 3 3 3 3 3 4 4 4 4 4 4 4 4 4 4 4 4 4 4 4 4 4 4 4 4 4 4 4 4 4 4 </vcount>
          <p>0 0 0 1 1 1 2 2 2 1 1 3 0 0 4 3 3 5 4 4 6 5 5 7 2 2 8 4 4 9 1 1 10 6 6 11 7 7 12 8 8 13 9 9 14 10 10 15 5 5 16 4 4 17 6 6 18 1 1 19 11 11 20 5 5 21 12 12 22 13 13 23 6 6 24 9 9 25 4 4 26 2 2 27 1 1 28 4 4 29 3 3 30 11 11 31 1 1 32 4 4 33 9 9 34 10 10 35 2 2 36 5 5 37 13 13 38 0 0 39 12 12 40 5 5 41 14 14 42 15 15 43 15 15 44 14 14 45 16 16 46 17 17 47 5 5 48 10 10 49 18 18 50 14 14 51 14 14 52 18 18 53 19 19 54 16 16 55 20 20 56 16 16 57 19 19 58 21 21 59 10 10 60 9 9 61 22 22 62 18 18 63 18 18 64 22 22 65 21 21 66 19 19 67 9 9 68 6 6 69 11 11 70 7 7 71 9 9 72 8 8 73 23 23 74 22 22 75 22 22 76 23 23 77 24 24 78 21 21 79 20 20 80 21 21 81 24 24 82 25 25 83 7 7 84 11 11 85 26 26 86 8 8 87 8 8 88 26 26 89 27 27 90 23 23 91 23 23 92 27 27 93 25 25 94 24 24 95 11 11 96 3 3 97 28 28 98 26 26 99 26 26 100 28 28 101 29 29 102 27 27 103 27 27 104 29 29 105 30 30 106 25 25 107 20 20 108 25 25 109 30 30 110 31 31 111 3 3 112 0 0 113 32 32 114 28 28 115 28 28 116 32 32 117 33 33 118 29 29 119 29 29 120 33 33 121 31 31 122 30 30 123 0 0 124 13 13 125 12 12 126 32 32 127 32 32 128 12 12 129 15 15 130 33 33 131 33 33 132 15 15 133 17 17 134 31 31 135 20 20 136 31 31 137 17 17 138 16 16 139</p>
        </polylist>
      </mesh>
    </geometry>
  </library_geometries>
  <library_visual_scenes>
    <visual_scene id="Scene" name="Scene">
      <node id="Grp00" name="Grp00" type="NODE">
        <matrix sid="transform">1 0 0 0 0 -4.37114e-8 -1 0 0 1 -4.37114e-8 0.09 0 0 0 1</matrix>
        <instance_geometry url="#Grp00-mesh" name="Grp00">
          <bind_material>
            <technique_common>
              <instance_material symbol="Texture-material" target="#Texture-material">
                <bind_vertex_input semantic="UVMap" input_semantic="TEXCOORD" input_set="0"/>
              </instance_material>
            </technique_common>
          </bind_material>
        </instance_geometry>
        <node id="Grp01" name="Grp01" type="NODE">
          <matrix sid="transform">-1 7.64274e-15 8.74228e-8 0.03 0 -1 8.74228e-8 1.1 8.74228e-8 8.74228e-8 1 0 0 0 0 1</matrix>
          <instance_geometry url="#Grp01-mesh" name="Grp01">
            <bind_material>
              <technique_common>
                <instance_material symbol="Texture-material" target="#Texture-material">
                  <bind_vertex_input semantic="UVMap" input_semantic="TEXCOORD" input_set="0"/>
                </instance_material>
              </technique_common>
            </bind_material>
          </instance_geometry>
        </node>
        <node id="Grp04" name="Grp04" type="NODE">
          <matrix sid="transform">-4.37114e-8 1 0 0.07 -1 -4.37114e-8 0 0.9999999 0 0 1 1.53 0 0 0 1</matrix>
          <instance_geometry url="#Grp04-mesh" name="Grp04">
            <bind_material>
              <technique_common>
                <instance_material symbol="Texture-material" target="#Texture-material">
                  <bind_vertex_input semantic="UVMap" input_semantic="TEXCOORD" input_set="0"/>
                </instance_material>
              </technique_common>
            </bind_material>
          </instance_geometry>
          <node id="Grp02" name="Grp02" type="NODE">
            <matrix sid="transform">-4.37114e-8 -0.9999999 0 1.87209 1 -4.37114e-8 0 8.19564e-8 0 0 0.9999999 -0.07768345 0 0 0 1</matrix>
            <instance_geometry url="#Grp02-mesh" name="Grp02">
              <bind_material>
                <technique_common>
                  <instance_material symbol="Texture-material" target="#Texture-material">
                    <bind_vertex_input semantic="UVMap" input_semantic="TEXCOORD" input_set="0"/>
                  </instance_material>
                </technique_common>
              </bind_material>
            </instance_geometry>
          </node>
        </node>
        <node id="Grp05" name="Grp05" type="NODE">
          <matrix sid="transform">-4.37114e-8 1 0 0.03 -1 -4.37114e-8 0 -1.16 0 0 1 0.45 0 0 0 1</matrix>
          <instance_geometry url="#Grp05-mesh" name="Grp05">
            <bind_material>
              <technique_common>
                <instance_material symbol="Texture-material" target="#Texture-material">
                  <bind_vertex_input semantic="UVMap" input_semantic="TEXCOORD" input_set="0"/>
                </instance_material>
              </technique_common>
            </bind_material>
          </instance_geometry>
          <node id="Grp03" name="Grp03" type="NODE">
            <matrix sid="transform">0.9999998 0 0 1.34 0 1 0 1.86265e-9 0 0 0.9999998 0 0 0 0 1</matrix>
            <instance_geometry url="#Grp03-mesh" name="Grp03">
              <bind_material>
                <technique_common>
                  <instance_material symbol="Texture-material" target="#Texture-material">
                    <bind_vertex_input semantic="UVMap" input_semantic="TEXCOORD" input_set="0"/>
                  </instance_material>
                </technique_common>
              </bind_material>
            </instance_geometry>
          </node>
        </node>
        <node id="Grp08" name="Grp08" type="NODE">
          <matrix sid="transform">-4.37114e-8 1 0 0.04 -0.9999999 -4.37114e-8 0 0.8600001 0 0 0.9999999 -1.56 0 0 0 1</matrix>
          <instance_geometry url="#Grp08-mesh" name="Grp08">
            <bind_material>
              <technique_common>
                <instance_material symbol="Texture-material" target="#Texture-material">
                  <bind_vertex_input semantic="UVMap" input_semantic="TEXCOORD" input_set="0"/>
                </instance_material>
              </technique_common>
            </bind_material>
          </instance_geometry>
          <node id="Grp06" name="Grp06" type="NODE">
            <matrix sid="transform">-4.37114e-8 -0.9999999 0 1.87209 0.9999999 -4.37114e-8 0 8.9407e-8 0 -3.55271e-15 1 0.08021283 0 0 0 1</matrix>
            <instance_geometry url="#Grp06-mesh" name="Grp06">
              <bind_material>
                <technique_common>
                  <instance_material symbol="Texture-material" target="#Texture-material">
                    <bind_vertex_input semantic="UVMap" input_semantic="TEXCOORD" input_set="0"/>
                  </instance_material>
                </technique_common>
              </bind_material>
            </instance_geometry>
          </node>
        </node>
        <node id="Grp09" name="Grp09" type="NODE">
          <matrix sid="transform">-4.37114e-8 1 0 0 -1 -4.37114e-8 0 -1.16 0 0 1 -0.48 0 0 0 1</matrix>
          <instance_geometry url="#Grp09-mesh" name="Grp09">
            <bind_material>
              <technique_common>
                <instance_material symbol="Texture-material" target="#Texture-material">
                  <bind_vertex_input semantic="UVMap" input_semantic="TEXCOORD" input_set="0"/>
                </instance_material>
              </technique_common>
            </bind_material>
          </instance_geometry>
          <node id="Grp07" name="Grp07" type="NODE">
            <matrix sid="transform">0.9999998 0 0 1.34 0 0.9999999 0 0 0 0 0.9999999 0 0 0 0 1</matrix>
            <instance_geometry url="#Grp07-mesh" name="Grp07">
              <bind_material>
                <technique_common>
                  <instance_material symbol="Texture-material" target="#Texture-material">
                    <bind_vertex_input semantic="UVMap" input_semantic="TEXCOORD" input_set="0"/>
                  </instance_material>
                </technique_common>
              </bind_material>
            </instance_geometry>
          </node>
        </node>
        <node id="Grp10" name="Grp10" type="NODE">
          <matrix sid="transform">1 0 0 0.66 0 1 0 -1 0 0 0.9999999 0 0 0 0 1</matrix>
          <instance_geometry url="#Grp10-mesh" name="Grp10">
            <bind_material>
              <technique_common>
                <instance_material symbol="Texture-material" target="#Texture-material">
                  <bind_vertex_input semantic="UVMap" input_semantic="TEXCOORD" input_set="0"/>
                </instance_material>
              </technique_common>
            </bind_material>
          </instance_geometry>
        </node>
      </node>
    </visual_scene>
  </library_visual_scenes>
  <scene>
    <instance_visual_scene url="#Scene"/>
  </scene>
</COLLADA>