{
  "accessors": [
    {
      "bufferView": 0,
      "componentType": 5126,
      "count": 2402,
      "max": [
        10.000004768371582,
        7.000002861022949,
        5.500002384185791
      ],
      "min": [
        0.0,
        0.0,
        0.0
      ],
      "type": "VEC3"
    },
    {
      "bufferView": 1,
      "componentType": 5125,
      "count": 3604,
      "type": "SCALAR"
    },
    {
      "bufferView": 2,
      "componentType": 5126,
      "count": 2402,
      "type": "VEC3"
    },
    {
      "bufferView": 3,
      "componentType": 5126,
      "count": 2402,
      "type": "VEC4"
    },
    {
      "bufferView": 4,
      "componentType": 5126,
      "count": 2402,
      "type": "VEC4"
    },
    {
      "bufferView": 5,
      "componentType": 5126,
      "count": 2402,
      "type": "VEC2"
    }
  ],
  "asset": {
    "version": "2.0"
  },
  "bufferViews": [
    {
      "buffer": 0,
      "byteLength": 28824,
      "target": 34962
    },
    {
      "buffer": 1,
      "byteLength": 14416,
      "target": 34963
    },
    {
      "buffer": 2,
      "byteLength": 28824,
      "target": 34962
    },
    {
      "buffer": 3,
      "byteLength": 38432,
      "target": 34962
    },
    {
      "buffer": 4,
      "byteLength": 38432,
      "target": 34962
    },
    {
      "buffer": 5,
      "byteLength": 19216,
      "target": 34962
    }
  ],
  "buffers": [
    {
      "byteLength": 28824,
      "uri": "data:application/octet-stream;base64,"
    },
    {
      "byteLength": 14416,
      "uri": "data:application/octet-stream;base64,"
    },
    {
      "byteLength": 28824,
      "uri": "data:application/octet-stream;base64,"
    },
    {
      "byteLength": 38432,
      "uri": "data:application/octet-stream;base64,"
    },
    {
      "byteLength": 38432,
      "uri": "data:application/octet-stream;base64,"
    },
    {
      "byteLength": 19216,
      "uri": "data:application/octet-stream;base64,"
    }
  ],
  "materials": [
    {
      "doubleSided": true,
      "name": "Element",
      "alphaTexture" : {"index" : 0},
      "alphaCutoff" : 0.5,
      "alphaMode" : "BLEND",
      "pbrMetallicRoughness": {
        "baseColorTexture" : {"index" : 0},
        "baseColorFactor": [
          1.0,
          1.0,
          1.0,
          1.0
        ]
      }
    }
  ],
  "images": [
    {
         "uri" : "83f90a9e57e34f999221eb28cb38e4d1_RGB_CubikModel_.png"
    }
  ],
  "textures": [
    {
         "source" : 0
    }
  ],
  "meshes": [
    {
      "primitives": [
        {
          "attributes": {
            "COLOR_0": 4,
            "NORMAL": 2,
            "POSITION": 0,
            "TANGENT": 3,
            "TEXCOORD_0": 5
          },
          "indices": 1,
          "mode": 5
        }
      ]
    }
  ],
  "nodes": [
    {
      "mesh": 0,
      "name": "_gltfNode_0"
    },
    {
      "children": [
        0
      ],
      "name": "CubikModel.obj.cleaner.gles",
      "rotation": [
        -0.7071067811865475,
        0.0,
        0.0,
        0.7071067811865476
      ],
      "scale": [
        1.0,
        1.0,
        1.0
      ],
      "translation": [
        -13.0,
        4.5,
        0.0
      ]
    }
  ],
  "scene": 0,
  "scenes": [
    {
      "nodes": [
        1
      ]
    }
  ]
}
