<?xml version="1.0" encoding="utf-8"?>
<COLLADA xmlns="http://www.collada.org/2005/11/COLLADASchema" version="1.4.1">
  <asset>
    <created>2018-03-02T15:46:50Z</created>
    <modified>2018-03-02T15:46:50Z</modified>
  </asset>
  <library_images>
    <image id="Image">
      <init_from>file:///kabigon_body.png</init_from>
    </image>
  </library_images>
  <library_materials>
    <material id="VisualMaterial" name="kabigon_body_png">
      <instance_effect url="#Effect"/>
      <extra>
        <technique profile="FCOLLADA">
          <user_properties>kabigon_body.png</user_properties>
        </technique>
      </extra>
    </material>
  </library_materials>
  <library_effects>
    <effect id="Effect" name="kabigon_body_png">
      <profile_COMMON>
        <newparam sid="Image-surface">
          <surface type="2D">
            <init_from>Image</init_from>
            <format>A8R8G8B8</format>
          </surface>
        </newparam>
        <newparam sid="Image-sampler">
          <sampler2D>
            <source>Image-surface</source>
            <wrap_s>WRAP</wrap_s>
            <wrap_t>WRAP</wrap_t>
            <minfilter>NONE</minfilter>
            <magfilter>NONE</magfilter>
            <mipfilter>NONE</mipfilter>
          </sampler2D>
        </newparam>
        <technique sid="common">
          <phong>
            <emission>
              <color>0 0 0 1</color>
            </emission>
            <ambient>
              <color>0 0 0 1</color>
            </ambient>
            <diffuse>
              <texture texture="Image-sampler" texcoord=""/>
            </diffuse>
            <specular>
              <color>1 1 1 1</color>
            </specular>
            <shininess>
              <float>0</float>
            </shininess>
            <transparent opaque="A_ONE">
              <color>0 0 0 1</color>
            </transparent>
            <transparency>
              <float>1</float>
            </transparency>
            <index_of_refraction>
              <float>1.55</float>
            </index_of_refraction>
          </phong>
          <extra>
            <technique profile="FCOLLADA">
              <spec_level>
                <float>0</float>
              </spec_level>
            </technique>
          </extra>
        </technique>
      </profile_COMMON>
      <extra>
        <technique profile="FCOLLADA">
          <user_properties>kabigon_body.png</user_properties>
        </technique>
      </extra>
    </effect>
  </library_effects>
  <library_geometries>
    <geometry id="Geometry" name="kabigon_body_png">
      <mesh>
        <source id="GeometrySource" name="kabigon_body.pngPos">
          <float_array id="GeometrySource-array" count="1905">-12.1424 12.257 0.309596 -12.9504 12.3121 0.146129 -12.265 12.2941 -0.131888 -12.265 12.2941 -0.131888 -12.9504 12.3121 0.146129 -11.904 12.6161 0.134984 -11.904 12.6161 0.134984 -12.9504 12.3121 0.146129 -12.1424 12.257 0.309596 -12.0408 12.2464 -0.75232 -12.5517 12.2068 -1.24334 -11.7702 12.1566 -1.13684 -11.7702 12.1566 -1.13684 -12.5517 12.2068 -1.24334 -11.8222 12.5189 -0.969038 -11.8222 12.5189 -0.969038 -12.5517 12.2068 -1.24334 -12.0408 12.2464 -0.75232 -11.8495 12.0644 0.819192 -11.7201 12.4805 0.67492 -12.7956 12.1591 0.814239 -11.7201 12.4805 0.67492 -12.0879 12.1895 0.419193 -12.7956 12.1591 0.814239 -12.7956 12.1591 0.814239 -12.0879 12.1895 0.419193 -11.8495 12.0644 0.819192 -11.7133 11.7969 0.602475 -12.3139 11.7635 1.14241 -11.5096 11.9183 1.01424 -11.5096 11.9183 1.01424 -12.3139 11.7635 1.14241 -11.522 11.4854 0.916406 -11.522 11.4854 0.916406 -12.3139 11.7635 1.14241 -11.7133 11.7969 0.602475 -12.239 12.2935 -0.197523 -11.873 12.5981 -0.466872 -12.9337 12.3696 -0.608667 -11.873 12.5981 -0.466872 -12.0897 12.2681 -0.687924 -12.9337 12.3696 -0.608667 -12.9337 12.3696 -0.608667 -12.0897 12.2681 -0.687924 -12.239 12.2935 -0.197523 12.1424 12.257 0.309596 12.265 12.2941 -0.131888 12.9504 12.3121 0.146129 12.265 12.2941 -0.131888 11.904 12.6161 0.134984 12.9504 12.3121 0.146129 12.9504 12.3121 0.146129 11.904 12.6161 0.134984 12.1424 12.257 0.309596 12.0408 12.2464 -0.75232 11.7702 12.1566 -1.13684 12.5517 12.2068 -1.24334 11.7702 12.1566 -1.13684 11.8222 12.5189 -0.969038 12.5517 12.2068 -1.24334 12.5517 12.2068 -1.24334 11.8222 12.5189 -0.969038 12.0408 12.2464 -0.75232 11.8495 12.0644 0.819192 12.7956 12.1591 0.814239 11.7201 12.4805 0.67492 11.7201 12.4805 0.67492 12.7956 12.1591 0.814239 12.0879 12.1895 0.419193 12.0879 12.1895 0.419193 12.7956 12.1591 0.814239 11.8495 12.0644 0.819192 11.7133 11.7969 0.602475 11.5096 11.9183 1.01424 12.3139 11.7635 1.14241 11.5096 11.9183 1.01424 11.522 11.4854 0.916406 12.3139 11.7635 1.14241 12.3139 11.7635 1.14241 11.522 11.4854 0.916406 11.7133 11.7969 0.602475 12.239 12.2935 -0.197523 12.9337 12.3696 -0.608667 11.873 12.5981 -0.466872 11.873 12.5981 -0.466872 12.9337 12.3696 -0.608667 12.0897 12.2681 -0.687924 12.0897 12.2681 -0.687924 12.9337 12.3696 -0.608667 12.239 12.2935 -0.197523 -4.99875 0.992567 2.90092 -4.99875 0.613621 3.54612 -4.59937 0.764084 2.83591 -4.66562 0.274922 3.44147 -4.99936 0.224148 3.93373 -4.47986 0.319504 2.83591 -4.66562 0.274922 3.44147 -4.99936 0.224148 3.93373 -5.33125 0.274922 3.44147 -4.47986 0.319504 2.83591 -5.51701 0.319504 2.83591 -5.51701 0.319504 2.83591 -5.33125 0.274922 3.44147 -5.39813 0.764084 2.83591 -4.99875 0.613621 3.54612 -4.99875 0.992567 2.90092 -6.44952 0.952938 2.43405 -6.81608 0.633435 2.9647 -6.12134 0.784518 2.66067 -6.48295 0.295355 3.06748 -7.03713 0.243962 3.28358 -6.02041 0.321361 2.72259 -6.48295 0.295355 3.06748 -7.03713 0.243962 3.28358 -7.03032 0.295355 2.68916 -6.02041 0.321361 2.72259 -6.86933 0.335603 2.12136 -6.86933 0.335603 2.12136 -7.03032 0.295355 2.68916 -6.77893 0.784518 2.2068 -6.81608 0.633435 2.9647 -6.44952 0.952938 2.43405 -3.54736 0.952938 2.413 -3.87553 0.784518 2.66067 -3.18079 0.633435 2.9647 -3.51392 0.295355 3.06748 -3.97646 0.321361 2.72259 -2.95974 0.243962 3.28358 -3.51392 0.295355 3.06748 -3.97646 0.321361 2.72259 -2.96655 0.295355 2.68916 -2.95974 0.243962 3.28358 -2.96655 0.295355 2.68916 -3.18079 0.633435 2.9647 -3.12754 0.335603 2.12136 -3.21857 0.784518 2.18513 -3.12754 0.335603 2.12136 -3.54736 0.952938 2.413 4.99875 0.992567 2.90092 4.59937 0.764084 2.83591 4.99875 0.613621 3.54612 4.66562 0.274922 3.44147 4.47986 0.319504 2.83591 4.99936 0.224148 3.93373 4.66562 0.274922 3.44147 4.47986 0.319504 2.83591 5.33125 0.274922 3.44147 4.99936 0.224148 3.93373 5.33125 0.274922 3.44147 4.99875 0.613621 3.54612 5.51701 0.319504 2.83591 5.39813 0.764084 2.83591 5.51701 0.319504 2.83591 4.99875 0.992567 2.90092 6.44952 0.952938 2.43405 6.12134 0.784518 2.66067 6.81608 0.633435 2.9647 6.48295 0.295355 3.06748 6.02041 0.321361 2.72259 7.03713 0.243962 3.28358 6.48295 0.295355 3.06748 6.02041 0.321361 2.72259 7.03032 0.295355 2.68916 7.03713 0.243962 3.28358 7.03032 0.295355 2.68916 6.81608 0.633435 2.9647 6.86933 0.335603 2.12136 6.77893 0.784518 2.2068 6.86933 0.335603 2.12136 6.44952 0.952938 2.43405 3.54736 0.952938 2.413 3.18079 0.633435 2.9647 3.87553 0.784518 2.66067 3.51392 0.295355 3.06748 2.95974 0.243962 3.28358 3.97646 0.321361 2.72259 3.51392 0.295355 3.06748 2.95974 0.243962 3.28358 2.96655 0.295355 2.68916 3.97646 0.321361 2.72259 3.12754 0.335603 2.12136 3.12754 0.335603 2.12136 2.96655 0.295355 2.68916 3.21857 0.784518 2.18513 3.18079 0.633435 2.9647 3.54736 0.952938 2.413 -2.33064 17.1919 3.04457 -2.41052 16.0681 3.41609 0 17.2996 3.65757 0 16.1034 4.09101 2.41052 16.0681 3.41609 2.33064 17.1919 3.04457 -2.99937 18.1003 2.04581 -2.33064 17.1919 3.04457 -1.49225 18.2885 2.68792 0 17.2996 3.65757 0 18.364 2.90587 1.49225 18.2885 2.68792 2.33064 17.1919 3.04457 2.99937 18.1003 2.04581 0 13.46 3.55417 0 14.5034 4.04209 -1.81919 13.5455 3.14179 1.81919 13.5455 3.14179 -2.20433 14.6086 3.47553 -3.20309 13.7188 2.3164 2.20433 14.6086 3.47553 3.20309 13.7188 2.3164 0 16.1034 4.09101 -2.41052 16.0681 3.41609 -3.67181 14.7702 2.38204 -4.07367 13.9417 0.972133 2.41052 16.0681 3.41609 3.67181 14.7702 2.38204 4.07367 13.9417 0.972133 -3.80556 15.9987 2.32259 -4.48544 15.2241 0.902783 -4.02352 14.0842 -0.92879 3.80556 15.9987 2.32259 4.48544 15.2241 0.902783 4.02352 14.0842 -0.92879 -3.5876 17.086 2.25448 -2.33064 17.1919 3.04457 -2.99937 18.1003 2.04581 -4.49039 16.6712 0.717025 -3.73931 17.8167 1.26996 -4.3746 15.2903 -0.97523 3.5876 17.086 2.25448 2.33064 17.1919 3.04457 2.99937 18.1003 2.04581 4.49039 16.6712 0.717025 3.73931 17.8167 1.26996 4.3746 15.2903 -0.97523 -3.27925 18.5566 0.928789 -4.20556 17.8798 0.077398 -4.36841 16.7207 -0.969038 -3.43095 15.1455 -2.45944 -4.02352 14.0842 -0.92879 -2.36718 14.1405 -2.76098 3.27925 18.5566 0.928789 4.20556 17.8798 0.077398 4.36841 16.7207 -0.969038 3.43095 15.1455 -2.45944 4.02352 14.0842 -0.92879 2.36718 14.1405 -2.76098 -4.12754 17.8421 -0.912072 -3.50773 17.065 -2.20557 4.12754 17.8421 -0.912072 3.50773 17.065 -2.20557 -2.06191 15.0204 -3.4359 -2.36718 14.1405 -2.76098 0 14.1647 -3.59875 -2.01362 16.229 -3.54674 0 15.0099 -4.02104 2.06191 15.0204 -3.4359 2.36718 14.1405 -2.76098 2.01362 16.229 -3.54674 0 16.5845 -4.03281 2.0904 17.5907 -3.14364 3.53374 18.1739 -1.57337 -2.0904 17.5907 -3.14364 0 17.7498 -3.5424 0 18.8266 -2.5164 2.07801 18.5176 -2.30835 2.0452 19.125 -1.2743 -3.53374 18.1739 -1.57337 -2.07801 18.5176 -2.30835 -2.0452 19.125 -1.2743 0 19.4315 -0.829719 4.14302 18.9132 -0.835911 3.7424 19.073 -1.2613 2.86501 19.6241 -1.12012 -3.7424 19.073 -1.2613 -2.86501 19.6241 -1.12012 4.11701 18.9535 -0.224768 4.15788 19.9851 -0.76037 3.74302 19.9597 -1.03405 1.42229 19.3665 -0.150464 2.52507 19.8278 -0.382043 3.62785 20.2891 -0.613621 2.86501 19.7064 0.078637 3.96779 20.2625 -0.712692 3.89844 20.0705 -0.295975 3.58946 19.3139 0.315788 1.96656 19.2328 0.611762 0 19.429 0.699688 1.66377 18.8693 1.79752 1.49225 18.2885 2.68792 0 18.9399 2.12445 0 18.364 2.90587 -1.49225 18.2885 2.68792 -1.66377 18.8693 1.79752 -1.96656 19.2328 0.611762 -1.42229 19.3665 -0.150464 -3.58946 19.3139 0.315788 -2.86501 19.7064 0.078637 -2.52507 19.8278 -0.382043 -3.62785 20.2891 -0.613621 -3.89844 20.0705 -0.295975 -4.11701 18.9535 -0.224768 -3.74302 19.9597 -1.03405 -3.96779 20.2625 -0.712692 -4.15788 19.9851 -0.76037 -4.14302 18.9132 -0.835911 -6.36469 1.84458 1.25634 -6.92444 2.06934 -1.31579 -5.58079 1.15356 -0.695973 -5.67738 2.09225 -3.05448 -4.18822 1.57956 2.67739 -3.76593 0.928171 -0.666871 -2.18575 1.53065 3.06748 -3.02166 2.01981 -3.92011 -2.06625 1.13436 -0.623528 0 1.98142 -4.15541 0 1.38142 -0.594425 0 1.50526 3.16779 2.18575 1.53065 3.06748 2.06625 1.13436 -0.623528 3.02166 2.01981 -3.92011 3.76593 0.928171 -0.666871 5.67738 2.09225 -3.05448 4.18822 1.57956 2.67739 5.58079 1.15356 -0.695973 6.36469 1.84458 1.25634 6.92444 2.06934 -1.31579 -2.18575 1.53065 3.06748 0 1.50526 3.16779 -2.34488 2.23219 4.39565 -4.18822 1.57956 2.67739 0 2.76594 5.30401 -4.60184 2.95603 4.27058 -2.45758 3.39999 5.28729 -6.3876 2.60123 2.58204 -6.36469 1.84458 1.25634 -4.7424 4.78822 5.08667 -6.72134 4.72444 3.58327 -7.66747 3.39194 1.16284 -6.92444 2.06934 -1.31579 0 4.38079 6.40122 -2.53622 4.48296 6.04518 -8.08109 5.80184 1.54427 -7.7783 3.73559 -1.47987 -5.67738 2.09225 -3.05448 -6.27862 7.59626 4.35788 2.34488 2.23219 4.39565 2.18575 1.53065 3.06748 4.18822 1.57956 2.67739 2.45758 3.39999 5.28729 4.60184 2.95603 4.27058 0 6.67614 7.08481 2.53622 4.48296 6.04518 4.7424 4.78822 5.08667 2.58761 6.84208 6.65757 -2.58761 6.84208 6.65757 0 9.55415 6.83961 -4.86252 7.18574 5.56778 -2.49597 9.56901 6.40246 -4.57522 9.72567 5.20122 -8.18449 6.47614 -1.18637 -7.85756 8.21545 1.66872 -6.12877 9.96777 3.89101 6.3876 2.60123 2.58204 6.36469 1.84458 1.25634 6.72134 4.72444 3.58327 7.66747 3.39194 1.16284 6.92444 2.06934 -1.31579 2.49597 9.56901 6.40246 0 12.0297 5.48295 -2.0551 12.0904 5.00989 -3.74488 12.2402 3.97893 4.86252 7.18574 5.56778 6.27862 7.59626 4.35788 4.57522 9.72567 5.20122 2.0551 12.0904 5.00989 0 13.46 3.55417 -1.81919 13.5455 3.14179 -3.20309 13.7188 2.3164 -4.70339 12.4266 3.09968 1.81919 13.5455 3.14179 3.74488 12.2402 3.97893 3.20309 13.7188 2.3164 6.12877 9.96777 3.89101 4.70339 12.4266 3.09968 8.08109 5.80184 1.54427 7.85756 8.21545 1.66872 7.7783 3.73559 -1.47987 8.18449 6.47614 -1.18637 5.67738 2.09225 -3.05448 -6.30524 11.6743 2.26872 -5.14983 13.0972 1.59256 -4.07367 13.9417 0.972133 5.14983 13.0972 1.59256 4.07367 13.9417 0.972133 6.30524 11.6743 2.26872 7.54053 10.0371 1.34303 7.86995 9.47489 -0.308358 7.86995 9.47489 -0.308358 6.25385 3.74426 -3.85757 3.02166 2.01981 -3.92011 6.4941 5.59874 -4.18698 7.20864 13.2637 1.2291 7.90214 11.904 2.06191 8.64766 10.3994 1.26501 7.30153 9.1009 -2.61733 7.86995 9.47489 -0.308358 6.43651 7.74425 -4.28234 3.38389 5.59998 -6.08048 3.14302 3.57646 -5.31144 0 1.98142 -4.15541 4.60927 13.9003 -0.019195 4.07367 13.9417 0.972133 4.02352 14.0842 -0.92879 5.83775 13.8835 -0.009288 5.08234 13.4452 -1.46873 4.02352 14.0842 -0.92879 9.75353 12.1071 1.72941 9.40925 13.2359 1.02724 7.39874 10.3461 -1.80681 5.83218 10.3715 -3.8681 3.38637 8.02412 -6.19069 0 3.52445 -5.89472 0 5.59379 -6.77769 -3.14302 3.57646 -5.31144 -3.02166 2.01981 -3.92011 0 8.21607 -6.96345 -3.38389 5.59998 -6.08048 -6.25385 3.74426 -3.85757 -6.4941 5.59874 -4.18698 -6.43651 7.74425 -4.28234 -3.38637 8.02412 -6.19069 0 10.5727 -6.32877 3.14612 10.4644 -5.50463 7.06684 13.8662 0.001238 9.26436 13.6929 -0.023529 7.18821 13.4619 -1.31517 -7.30153 9.1009 -2.61733 -5.83218 10.3715 -3.8681 -3.14612 10.4644 -5.50463 0 12.7715 -5.10896 -2.81114 12.5411 -4.46253 2.81114 12.5411 -4.46253 0 14.1647 -3.59875 -2.36718 14.1405 -2.76098 2.36718 14.1405 -2.76098 11.5492 13.1244 -0.065634 9.36901 13.3442 -1.10774 -7.86995 9.47489 -0.308358 -7.86995 9.47489 -0.308358 -7.39874 10.3461 -1.80681 -3.76408 13.6476 -2.51764 -2.36718 14.1405 -2.76098 -4.02352 14.0842 -0.92879 -4.81361 12.1888 -3.13931 -5.08234 13.4452 -1.46873 -6.18822 12.1709 -2.36284 4.81361 12.1888 -3.13931 6.18822 12.1709 -2.36284 7.86189 12.247 -2.25201 3.76408 13.6476 -2.51764 2.36718 14.1405 -2.76098 -7.86995 9.47489 -0.308358 -8.65942 10.6204 -1.66996 -7.86189 12.247 -2.25201 -7.18821 13.4619 -1.31517 11.4495 12.982 -0.886685 9.80183 12.3108 -1.95789 8.65942 10.6204 -1.66996 7.86995 9.47489 -0.308358 -4.60927 13.9003 -0.019195 -4.02352 14.0842 -0.92879 -4.07367 13.9417 0.972133 -5.83775 13.8835 -0.009288 -9.80183 12.3108 -1.95789 -9.36901 13.3442 -1.10774 12.0179 12.3083 -1.00929 11.4161 12.3356 -1.45634 10.26 10.9845 -1.46935 11.756 11.548 -1.17337 9.00307 9.84518 -0.253869 10.4291 10.4062 -0.203715 11.9096 11.3424 -0.143034 12.3857 12.257 -0.095356 11.9671 12.2142 0.85139 11.6396 11.4538 0.925694 10.2353 10.8823 1.10464 11.3839 12.2198 1.22476 11.4582 12.9263 0.762846 7.86995 9.47489 -0.308358 -7.06684 13.8662 0.001238 -7.20864 13.2637 1.2291 -9.26436 13.6929 -0.023529 -11.4495 12.982 -0.886685 -11.5492 13.1244 -0.065634 -9.40925 13.2359 1.02724 -7.90214 11.904 2.06191 -11.4161 12.3356 -1.45634 -12.0179 12.3083 -1.00929 -9.75353 12.1071 1.72941 -11.4582 12.9263 0.762846 -10.26 10.9845 -1.46935 -11.756 11.548 -1.17337 -7.54053 10.0371 1.34303 -7.86995 9.47489 -0.308358 -8.64766 10.3994 1.26501 -9.00307 9.84518 -0.253869 -7.86995 9.47489 -0.308358 -10.2353 10.8823 1.10464 -10.4291 10.4062 -0.203715 -11.9096 11.3424 -0.143034 -11.6396 11.4538 0.925694 -11.3839 12.2198 1.22476 -11.9671 12.2142 0.85139 -12.3857 12.257 -0.095356 -7.4718 0.339318 1.05882 -7.64332 0.352321 0.009287 -6.50586 0.016099 1.56346 -6.99874 0.33808 2.07058 -6.11949 0.321361 2.7455 -6.63218 0.011145 -0.747985 -7.42165 0.341795 -1.03777 -6.92382 0.315788 -1.98699 -6.05509 0.294117 -2.61547 -4.99999 0 2.07182 -4.99999 0 -1.95727 -4.99999 0.286067 -2.87987 -3.94426 0.294117 -2.61547 -3.36717 0.011145 -0.747985 -3.07553 0.315788 -1.98699 -2.5777 0.341795 -1.03777 -2.35603 0.352321 0.009287 -3.49349 0.016099 1.56346 -2.52755 0.339318 1.05882 -3.00061 0.33808 2.07058 -3.87986 0.321361 2.7455 -4.99999 0.315789 3.01795 -4.99999 0.315789 3.01795 -4.99999 1.22972 2.9294 -6.11949 0.321361 2.7455 -3.87986 0.321361 2.7455 -6.14301 1.20371 2.64829 -6.99874 0.33808 2.07058 -3.85633 1.20371 2.64829 -3.00061 0.33808 2.07058 -4.99999 2.1003 1.59256 -7.02103 1.12941 2.04891 -6.57831 1.8582 1.28916 -7.51329 1.0904 1.08483 -7.4718 0.339318 1.05882 -2.97832 1.13189 2.04891 -3.42166 1.8582 1.28916 -2.48544 1.0904 1.08483 -2.52755 0.339318 1.05882 -4.99999 2.35231 -0.022291 -3.28915 1.96965 0.002476 -2.32631 1.06749 0.002476 -2.35603 0.352321 0.009287 -2.5777 0.341795 -1.03777 -2.54241 1.03219 -1.08483 -3.07553 0.315788 -1.98699 -3.37894 1.8582 -1.1969 -3.50154 1.15232 -2.32507 -4.99999 2.22105 -1.36099 -3.94426 0.294117 -2.61547 -4.99999 1.28359 -2.86253 -4.99999 0.286067 -2.87987 -6.05509 0.294117 -2.61547 -6.49781 1.15232 -2.32507 -6.92382 0.315788 -1.98699 -6.62041 1.8582 -1.1969 -7.45694 1.03219 -1.08483 -6.7102 1.96965 0.002476 -7.67304 1.06749 0.002476 -7.42165 0.341795 -1.03777 -7.64332 0.352321 0.009287 7.4718 0.339318 1.05882 6.50586 0.016099 1.56346 7.64332 0.352321 0.009287 6.99874 0.33808 2.07058 6.11949 0.321361 2.7455 6.63218 0.011145 -0.747985 7.42165 0.341795 -1.03777 6.92382 0.315788 -1.98699 6.05509 0.294117 -2.61547 4.99999 0 2.07182 4.99999 0 -1.95727 4.99999 0.286067 -2.87987 3.94426 0.294117 -2.61547 3.36717 0.011145 -0.747985 3.07553 0.315788 -1.98699 2.5777 0.341795 -1.03777 2.35603 0.352321 0.009287 3.49349 0.016099 1.56346 2.52755 0.339318 1.05882 3.00061 0.33808 2.07058 3.87986 0.321361 2.7455 4.99999 0.315789 3.01795 4.99999 0.315789 3.01795 6.11949 0.321361 2.7455 4.99999 1.22972 2.9294 3.87986 0.321361 2.7455 3.85633 1.20371 2.64829 3.00061 0.33808 2.07058 6.14301 1.20371 2.64829 6.99874 0.33808 2.07058 4.99999 2.1003 1.59256 2.97832 1.13189 2.04891 3.42166 1.8582 1.28916 2.48544 1.0904 1.08483 2.52755 0.339318 1.05882 7.02103 1.12941 2.04891 6.57831 1.8582 1.28916 7.51329 1.0904 1.08483 7.4718 0.339318 1.05882 4.99999 2.35231 -0.022291 6.7102 1.96965 0.002476 7.67304 1.06749 0.002476 7.64332 0.352321 0.009287 7.42165 0.341795 -1.03777 7.45694 1.03219 -1.08483 6.92382 0.315788 -1.98699 6.62041 1.8582 -1.1969 6.49781 1.15232 -2.32507 4.99999 2.22105 -1.36099 6.05509 0.294117 -2.61547 4.99999 1.28359 -2.86253 4.99999 0.286067 -2.87987 3.94426 0.294117 -2.61547 3.50154 1.15232 -2.32507 3.07553 0.315788 -1.98699 3.37894 1.8582 -1.1969 2.54241 1.03219 -1.08483 3.28915 1.96965 0.002476 2.32631 1.06749 0.002476 2.5777 0.341795 -1.03777 2.35603 0.352321 0.009287</float_array>
          <technique_common>
            <accessor source="#GeometrySource-array" count="635" stride="3">
              <param name="X" type="float"/>
              <param name="Y" type="float"/>
              <param name="Z" type="float"/>
            </accessor>
          </technique_common>
        </source>
        <source id="GeometrySource1" name="kabigon_body.pngNrm">
          <float_array id="GeometrySource1-array" count="1905">-0.05402 -0.996165 -0.068823 -0.05402 -0.996165 -0.068823 -0.05402 -0.996165 -0.068823 -0.227209 0.759723 -0.60926 -0.227209 0.759723 -0.60926 -0.227209 0.759723 -0.60926 -0.137815 0.505587 0.851698 -0.137815 0.505587 0.851698 -0.137815 0.505587 0.851698 -0.086016 -0.981902 0.168732 -0.086016 -0.981902 0.168732 -0.086016 -0.981902 0.168732 0.148953 0.433174 -0.888917 0.148953 0.433174 -0.888917 0.148953 0.433174 -0.888917 -0.488771 0.748551 0.448079 -0.488771 0.748551 0.448079 -0.488771 0.748551 0.448079 0.02708 0.319943 0.94705 0.02708 0.319943 0.94705 0.02708 0.319943 0.94705 -0.307315 0.81706 -0.487822 -0.307315 0.81706 -0.487822 -0.307315 0.81706 -0.487822 -0.095336 -0.964851 -0.244894 -0.095336 -0.964851 -0.244894 -0.095336 -0.964851 -0.244894 -0.213207 0.960717 -0.177668 -0.213207 0.960717 -0.177668 -0.213207 0.960717 -0.177668 0.194897 -0.221549 0.955474 0.194897 -0.221549 0.955474 0.194897 -0.221549 0.955474 -0.410586 -0.760008 -0.503793 -0.410586 -0.760008 -0.503793 -0.410586 -0.760008 -0.503793 -0.245303 0.790656 0.560973 -0.245303 0.790656 0.560973 -0.245303 0.790656 0.560973 -0.010213 0.561091 -0.827691 -0.010213 0.561091 -0.827691 -0.010213 0.561091 -0.827691 -0.118019 -0.99289 0.015495 -0.118019 -0.99289 0.015495 -0.118019 -0.99289 0.015495 0.054021 -0.996165 -0.068823 0.054021 -0.996165 -0.068823 0.054021 -0.996165 -0.068823 0.227209 0.759723 -0.60926 0.227209 0.759723 -0.60926 0.227209 0.759723 -0.60926 0.137815 0.505587 0.851698 0.137815 0.505587 0.851698 0.137815 0.505587 0.851698 0.086016 -0.981902 0.168732 0.086016 -0.981902 0.168732 0.086016 -0.981902 0.168732 -0.148953 0.433174 -0.888917 -0.148953 0.433174 -0.888917 -0.148953 0.433174 -0.888917 0.488772 0.748551 0.448078 0.488772 0.748551 0.448078 0.488772 0.748551 0.448078 -0.02708 0.319943 0.94705 -0.02708 0.319943 0.94705 -0.02708 0.319943 0.94705 0.307315 0.81706 -0.487822 0.307315 0.81706 -0.487822 0.307315 0.81706 -0.487822 0.095336 -0.964851 -0.244894 0.095336 -0.964851 -0.244894 0.095336 -0.964851 -0.244894 0.213207 0.960717 -0.177668 0.213207 0.960717 -0.177668 0.213207 0.960717 -0.177668 -0.194897 -0.221549 0.955474 -0.194897 -0.221549 0.955474 -0.194897 -0.221549 0.955474 0.410586 -0.760008 -0.503792 0.410586 -0.760008 -0.503792 0.410586 -0.760008 -0.503792 0.245303 0.790655 0.560973 0.245303 0.790655 0.560973 0.245303 0.790655 0.560973 0.010213 0.561091 -0.827691 0.010213 0.561091 -0.827691 0.010213 0.561091 -0.827691 0.118018 -0.992891 0.015495 0.118018 -0.992891 0.015495 0.118018 -0.992891 0.015495 0.000000 0.862274 0.506441 -0.000347 0.77528 0.631618 0.732616 0.527519 0.430113 0.780217 0.436931 0.447607 -0.000744 0.705415 0.708794 0.921011 0.247571 0.300745 0 -0.996119 -0.08802 0 -0.994723 -0.1026 0 -0.996537 -0.083155 0 -0.997301 -0.073421 0 -0.997301 -0.073421 -0.921329 0.246372 0.300755 -0.780859 0.436376 0.44703 -0.733002 0.526897 0.430217 -0.000347 0.77528 0.631618 0.000000 0.862274 0.506441 -0.25171 0.896071 0.365648 -0.352741 0.783673 0.511302 0.313919 0.558609 0.767731 0.37286 0.423267 0.825724 -0.402738 0.705774 0.582825 0.573383 0.230071 0.78632 0.043009 -0.997135 -0.062226 0.058968 -0.994607 -0.085316 0.037929 -0.997328 -0.062433 0.027395 -0.998325 -0.050968 0.02777 -0.997637 -0.062841 -0.939035 0.236589 -0.249479 -0.903493 0.425256 -0.053457 -0.828127 0.56025 -0.018019 -0.352741 0.783673 0.511302 -0.25171 0.896071 0.365648 0.256654 0.90052 0.350987 -0.310938 0.565916 0.763582 0.354758 0.786637 0.505321 -0.37286 0.423267 0.825724 -0.573384 0.230071 0.78632 0.402738 0.705774 0.582825 -0.043009 -0.997135 -0.062226 -0.027395 -0.998325 -0.050968 -0.037929 -0.997328 -0.062433 -0.058968 -0.994607 -0.085316 0.904688 0.422557 -0.05463 0.354758 0.786637 0.505321 -0.02777 -0.997637 -0.062842 0.829411 0.558256 -0.020674 0.941176 0.226464 -0.250802 0.256654 0.90052 0.350987 -0.000000 0.862274 0.506442 -0.732616 0.527519 0.430114 0.000347 0.77528 0.631618 -0.780217 0.436931 0.447607 -0.921011 0.247571 0.300745 0.000744 0.705415 0.708794 0 -0.996119 -0.08802 0 -0.997301 -0.073421 0 -0.996537 -0.083155 0 -0.994723 -0.1026 0.780859 0.436376 0.44703 0.000347 0.77528 0.631618 0 -0.997301 -0.073421 0.733002 0.526897 0.430217 0.921329 0.246372 0.300755 -0.000000 0.862274 0.506442 0.25171 0.896071 0.365648 -0.313919 0.558609 0.767731 0.352741 0.783673 0.511302 -0.37286 0.423267 0.825724 -0.573384 0.230071 0.78632 0.402738 0.705774 0.582825 -0.043009 -0.997135 -0.062226 -0.027395 -0.998325 -0.050968 -0.037929 -0.997328 -0.062433 -0.058968 -0.994607 -0.085316 0.903493 0.425256 -0.053457 0.352741 0.783673 0.511302 -0.02777 -0.997637 -0.062841 0.828128 0.56025 -0.018019 0.939035 0.236589 -0.249479 0.25171 0.896071 0.365648 -0.256654 0.90052 0.350987 -0.354758 0.786637 0.505321 0.310938 0.565916 0.763582 0.37286 0.423267 0.825724 -0.402738 0.705774 0.582825 0.573384 0.230071 0.78632 0.043009 -0.997135 -0.062226 0.058968 -0.994607 -0.085316 0.037929 -0.997328 -0.062433 0.027395 -0.998325 -0.050968 0.02777 -0.997637 -0.062842 -0.941176 0.226464 -0.250802 -0.904688 0.422557 -0.05463 -0.829411 0.558257 -0.020674 -0.354758 0.786637 0.505321 -0.256654 0.90052 0.350987 -0.388203 0.419117 0.820756 -0.461868 0.153108 0.873634 0 0.435569 0.900155 0 0.105286 0.994442 0.461868 0.153108 0.873634 0.388203 0.419116 0.820756 -0.513505 0.631381 0.581094 -0.388203 0.419117 0.820756 -0.235632 0.672709 0.701385 0 0.435569 0.900155 0.000000 0.700098 0.714046 0.235632 0.672709 0.701385 0.388203 0.419116 0.820756 0.513504 0.631381 0.581095 0 0.492291 0.870431 0 -0.284026 0.958817 -0.340018 0.237893 0.909832 0.340018 0.237893 0.909832 -0.423815 -0.203303 0.882638 -0.601421 0.358157 0.714155 0.423815 -0.203303 0.882638 0.601421 0.358157 0.714155 0 0.105286 0.994442 -0.461868 0.153108 0.873634 -0.752997 -0.191412 0.629569 -0.910864 0.17723 0.372715 0.461868 0.153108 0.873634 0.752997 -0.191412 0.629569 0.910864 0.17723 0.372715 -0.801411 0.065978 0.594464 -0.969396 -0.15369 0.191443 -0.891694 0.251257 -0.376499 0.801411 0.065978 0.594464 0.969396 -0.15369 0.191443 0.891694 0.251257 -0.376499 -0.698789 0.342516 0.627994 -0.388203 0.419117 0.820756 -0.513505 0.631381 0.581094 -0.961133 0.177425 0.211527 -0.769009 0.499383 0.399053 -0.960011 -0.112427 -0.256396 0.69879 0.342516 0.627994 0.388203 0.419116 0.820756 0.513504 0.631381 0.581095 0.961133 0.177425 0.211527 0.769009 0.499383 0.399053 0.960011 -0.112427 -0.256396 -0.53634 0.659458 0.526739 -0.938982 0.25702 0.228589 -0.94101 0.11507 -0.318214 -0.728464 -0.156538 -0.66696 -0.881431 -0.351788 -0.315158 -0.524275 0.018626 -0.851345 0.53634 0.659458 0.526739 0.938982 0.25702 0.228589 0.94101 0.11507 -0.318214 0.728464 -0.156538 -0.66696 0.881431 -0.351788 -0.315159 0.524275 0.018627 -0.851345 -0.883665 0.138406 -0.447192 -0.725005 0.20351 -0.657991 0.883664 0.138406 -0.447192 0.725005 0.20351 -0.657991 -0.402181 -0.300792 -0.86474 -0.540777 0.212408 -0.813906 0 0.166866 -0.98598 -0.444129 0.068067 -0.893374 0 -0.1818 -0.983336 0.402182 -0.300792 -0.86474 0.540777 0.212409 -0.813906 0.444129 0.068068 -0.893374 0 0.219991 -0.975502 0.370314 0.468186 -0.80229 0.479566 0.426712 -0.766768 -0.370314 0.468186 -0.80229 0 0.548067 -0.836434 0 0.809018 -0.587784 0.314553 0.739793 -0.59478 -0.010613 0.862933 -0.505208 -0.479567 0.426712 -0.766768 -0.314553 0.739793 -0.594779 0.010613 0.862933 -0.505208 0 0.986629 -0.162981 0.956457 0.030376 -0.290289 0.501642 0.161644 -0.849839 -0.184279 0.585056 -0.789779 -0.501642 0.161644 -0.849839 0.184279 0.585056 -0.789779 0.91964 0.145232 0.364926 0.913389 0.283939 -0.291716 0.143877 0.528763 -0.836486 -0.12491 0.990504 0.057436 -0.397632 0.913598 -0.085013 -0.183614 0.981962 -0.045135 -0.119974 0.807377 0.57771 0.451712 0.869286 -0.200744 0.502784 0.602003 0.620323 0.465721 0.451624 0.761012 0.092773 0.875949 0.473398 0 0.982173 0.187982 0.243172 0.869107 0.430721 0.235632 0.672709 0.701385 0 0.866572 0.499052 0.000000 0.700098 0.714046 -0.235632 0.672709 0.701385 -0.243172 0.869107 0.430721 -0.092773 0.875949 0.473398 0.124909 0.990504 0.057436 -0.465721 0.451624 0.761012 0.119974 0.807377 0.57771 0.397631 0.913598 -0.085013 0.183614 0.981962 -0.045135 -0.502784 0.602003 0.620323 -0.91964 0.145232 0.364926 -0.143877 0.528763 -0.836486 -0.451713 0.869285 -0.200744 -0.91339 0.283939 -0.291716 -0.956457 0.030376 -0.29029 -0.567268 -0.786746 0.24339 -0.721418 -0.676032 -0.150121 -0.316734 -0.947318 -0.047632 -0.435989 -0.739551 -0.512814 -0.23395 -0.892843 0.384837 -0.033004 -0.995243 -0.091659 0.003227 -0.973153 0.230137 -0.132234 -0.822244 -0.55356 0.090257 -0.990985 -0.099006 0 -0.879625 -0.475668 0 -0.999972 -0.007524 0 -0.93908 0.343699 -0.003228 -0.973153 0.230138 -0.090257 -0.990985 -0.099006 0.132234 -0.822244 -0.55356 0.033004 -0.995243 -0.091659 0.435989 -0.739551 -0.512814 0.23395 -0.892843 0.384837 0.316734 -0.947318 -0.047632 0.567268 -0.786746 0.24339 0.721418 -0.676032 -0.150121 0.003227 -0.973153 0.230137 0 -0.93908 0.343699 -0.139206 -0.784272 0.604598 -0.23395 -0.892843 0.384837 0 -0.693761 0.720205 -0.400435 -0.567896 0.719128 -0.235417 -0.553348 0.79899 -0.59369 -0.608594 0.526447 -0.567268 -0.786746 0.24339 -0.494897 -0.299806 0.815594 -0.721354 -0.259854 0.641969 -0.871908 -0.42503 0.24316 -0.721418 -0.676032 -0.150121 0 -0.481273 0.876571 -0.258899 -0.386923 0.885021 -0.957976 -0.072203 0.277613 -0.906348 -0.296078 -0.301449 -0.435989 -0.739551 -0.512814 -0.733599 0.038058 0.678516 0.139206 -0.784272 0.604598 -0.003228 -0.973153 0.230138 0.23395 -0.892843 0.384837 0.235417 -0.553348 0.79899 0.400435 -0.567896 0.719128 0 -0.153991 0.988072 0.258899 -0.386923 0.885021 0.494897 -0.299806 0.815594 0.30387 -0.069197 0.950197 -0.30387 -0.069197 0.950197 0 0.225867 0.974158 -0.536407 0.016639 0.843796 -0.310061 0.316503 0.896487 -0.515178 0.348544 0.783012 -0.971726 0.023584 -0.23493 -0.942879 0.138767 0.302858 -0.693036 0.36616 0.620989 0.59369 -0.608594 0.526447 0.567268 -0.786746 0.24339 0.721354 -0.259854 0.641969 0.871908 -0.42503 0.24316 0.721418 -0.676032 -0.150121 0.310061 0.316503 0.896486 0 0.609438 0.792834 -0.255169 0.660112 0.706499 -0.396679 0.64711 0.651072 0.536407 0.016639 0.843796 0.733599 0.038058 0.678516 0.515179 0.348544 0.783012 0.255169 0.660112 0.706499 0 0.492291 0.870431 -0.340018 0.237893 0.909832 -0.601421 0.358157 0.714155 -0.494042 0.660422 0.565478 0.340018 0.237893 0.909832 0.396679 0.64711 0.651072 0.601421 0.358157 0.714155 0.693036 0.36616 0.620989 0.494042 0.660422 0.565478 0.957976 -0.072203 0.277613 0.942879 0.138767 0.302858 0.906348 -0.296078 -0.301449 0.971726 0.023584 -0.23493 0.435989 -0.739551 -0.512814 -0.433077 0.423506 0.795667 -0.305274 0.810355 0.500133 -0.856877 0.380965 0.347315 0.305274 0.810355 0.500133 0.856877 0.380965 0.347315 0.433077 0.423506 0.795668 0.702629 -0.184064 0.687338 0.864239 -0.490982 -0.109667 0.919734 -0.392155 -0.017422 0.542579 -0.418941 -0.728078 0.132234 -0.822244 -0.55356 0.74528 -0.106977 -0.658114 0.054338 0.773478 0.631489 0.145479 0.091612 0.985111 0.266018 -0.675147 0.688049 0.877701 0.179462 -0.444336 0.906268 -0.374727 -0.195595 0.702861 0.084253 -0.70632 0.37653 -0.164594 -0.911666 0.226915 -0.541743 -0.809335 0 -0.879625 -0.475668 0.255556 0.964173 0.071146 0.38167 0.892131 0.241723 0.357654 0.918698 -0.167561 0.012258 0.996743 0.079711 0.274349 0.85029 -0.449154 0.805843 0.53777 -0.247833 0.226663 0.099196 0.968909 0.14356 0.779011 0.610354 0.602919 -0.119621 -0.788783 0.601807 0.379583 -0.702671 0.386501 0.167793 -0.906897 0 -0.585039 -0.811005 0 -0.282973 -0.959128 -0.226915 -0.541743 -0.809335 -0.132234 -0.822244 -0.55356 0 0.048154 -0.99884 -0.37653 -0.164594 -0.911666 -0.542579 -0.418941 -0.728078 -0.74528 -0.106977 -0.658114 -0.702861 0.084253 -0.70632 -0.386501 0.167793 -0.906897 0 0.348498 -0.93731 0.345859 0.396361 -0.850459 0.0464 0.995823 0.078638 0.130603 0.989767 0.057475 0.054624 0.849635 -0.524535 -0.877701 0.179462 -0.444336 -0.601807 0.379583 -0.702671 -0.345859 0.396361 -0.850459 0 0.57343 -0.819255 -0.3699 0.622419 -0.689759 0.3699 0.622419 -0.689759 0 0.166866 -0.98598 -0.540777 0.212408 -0.813906 0.540777 0.212409 -0.813906 0.506138 0.861755 0.034685 0.154461 0.839415 -0.521079 -0.906268 -0.374727 -0.195595 -0.864239 -0.490982 -0.109667 -0.602919 -0.119621 -0.788783 -0.437242 0.760837 -0.479528 -0.450554 0.586703 -0.67289 -0.805843 0.53777 -0.247833 -0.471448 0.614883 -0.632184 -0.274349 0.85029 -0.449154 -0.310427 0.47375 -0.824133 0.471448 0.614883 -0.632184 0.310427 0.47375 -0.824133 0.114817 0.215168 -0.969804 0.437242 0.760837 -0.479528 0.450554 0.586703 -0.67289 -0.789548 -0.59513 -0.14978 -0.225867 -0.577637 -0.784423 -0.114817 0.215168 -0.969804 -0.054624 0.849635 -0.524535 0.395176 0.745578 -0.53661 0.214208 0.222412 -0.95113 0.225867 -0.577637 -0.784423 0.789548 -0.59513 -0.14978 -0.255556 0.964173 0.071146 -0.357654 0.918698 -0.167561 -0.38167 0.892131 0.241723 -0.012258 0.996743 0.079711 -0.214208 0.222412 -0.95113 -0.154461 0.839415 -0.521079 0.845851 0.226637 -0.482879 0.41645 0.154027 -0.896016 0.311896 -0.580673 -0.752024 0.626307 -0.498587 -0.599292 0.330763 -0.941942 -0.057803 0.445697 -0.894802 -0.026159 0.82139 -0.570344 0.005093 0.988293 0.150567 0.024627 0.828048 0.141896 0.542404 0.581692 -0.558814 0.591068 0.318156 -0.646785 0.693142 0.38575 0.041155 0.921685 0.404325 0.6678 0.624952 0.799645 -0.59597 -0.073397 -0.0464 0.995823 0.078638 -0.054338 0.773478 0.631489 -0.130603 0.989767 0.057475 -0.395176 0.745578 -0.53661 -0.506138 0.861755 0.034685 -0.14356 0.779011 0.610354 -0.145479 0.091612 0.985111 -0.41645 0.154027 -0.896016 -0.845851 0.226637 -0.482879 -0.226663 0.099196 0.968909 -0.404324 0.6678 0.624952 -0.311896 -0.580673 -0.752024 -0.626307 -0.498587 -0.599292 -0.702629 -0.184064 0.687338 -0.919734 -0.392155 -0.017422 -0.266018 -0.675147 0.688049 -0.330763 -0.941942 -0.057803 -0.799645 -0.59597 -0.073397 -0.318157 -0.646785 0.693142 -0.445697 -0.894802 -0.026159 -0.82139 -0.570344 0.005094 -0.581692 -0.558814 0.591068 -0.38575 0.041155 0.921685 -0.828048 0.141896 0.542404 -0.988293 0.150567 0.024627 -0.851918 -0.472382 0.226034 -0.715359 -0.698648 -0.012346 -0.24133 -0.959622 0.144516 -0.71916 -0.358556 0.595186 -0.325885 -0.541376 0.775056 -0.194307 -0.977243 -0.085095 -0.837546 -0.483125 -0.255163 -0.692212 -0.461403 -0.554933 -0.338179 -0.594076 -0.729869 -0.000012 -0.988406 0.151836 -0.00002 -0.986315 -0.164872 -0.000057 -0.594414 -0.804159 0.338107 -0.59408 -0.729899 0.194295 -0.977245 -0.085093 0.692212 -0.461402 -0.554933 0.837545 -0.483125 -0.255163 0.715359 -0.698648 -0.012346 0.241321 -0.959625 0.144514 0.851796 -0.47268 0.22587 0.719056 -0.358673 0.595241 0.325818 -0.541385 0.775078 -0.000054 -0.553044 0.833152 -0.000054 -0.553044 0.833152 -0.00006 0.382002 0.924162 -0.325885 -0.541376 0.775056 0.325818 -0.541385 0.775078 -0.410284 0.491075 0.768448 -0.71916 -0.358556 0.595186 0.409867 0.491384 0.768473 0.719056 -0.358673 0.595241 -0.000015 0.914632 0.404288 -0.701496 0.410277 0.582731 -0.400799 0.869311 0.289238 -0.880275 0.378962 0.28549 -0.851918 -0.472382 0.226034 0.701056 0.411159 0.582639 0.400202 0.869688 0.288931 0.880317 0.379055 0.285234 0.851796 -0.47268 0.22587 -0.00003 0.999895 0.014528 0.544509 0.838692 -0.010247 0.973048 0.228602 -0.030327 0.715359 -0.698648 -0.012346 0.837545 -0.483125 -0.255163 0.855206 0.373034 -0.359816 0.692212 -0.461402 -0.554933 0.432661 0.85834 -0.275786 0.531175 0.464086 -0.708856 -0.000046 0.915816 -0.401599 0.338107 -0.59408 -0.729899 -0.000068 0.374353 -0.927286 -0.000057 -0.594414 -0.804159 -0.338179 -0.594076 -0.729869 -0.531226 0.464058 -0.708837 -0.692212 -0.461403 -0.554933 -0.432707 0.858318 -0.275782 -0.855206 0.373034 -0.359816 -0.544618 0.838622 -0.010248 -0.97302 0.228741 -0.030155 -0.837546 -0.483125 -0.255163 -0.715359 -0.698648 -0.012346 0.851918 -0.472382 0.226034 0.24133 -0.959622 0.144516 0.715359 -0.698648 -0.012346 0.71916 -0.358556 0.595186 0.325885 -0.541376 0.775056 0.194307 -0.977243 -0.085095 0.837545 -0.483125 -0.255163 0.692212 -0.461403 -0.554933 0.338179 -0.594076 -0.729869 0.000012 -0.988406 0.151836 0.00002 -0.986315 -0.164872 0.000057 -0.594414 -0.804159 -0.338107 -0.59408 -0.729899 -0.194295 -0.977245 -0.085093 -0.692212 -0.461402 -0.554933 -0.837545 -0.483125 -0.255163 -0.715359 -0.698648 -0.012346 -0.241321 -0.959625 0.144514 -0.851796 -0.47268 0.22587 -0.719056 -0.358673 0.595241 -0.325818 -0.541385 0.775078 0.000054 -0.553044 0.833152 0.000054 -0.553044 0.833152 0.325885 -0.541376 0.775056 0.00006 0.382002 0.924162 -0.325818 -0.541385 0.775078 -0.409867 0.491384 0.768473 -0.719056 -0.358673 0.595241 0.410284 0.491075 0.768448 0.71916 -0.358556 0.595186 0.000015 0.914632 0.404288 -0.701056 0.411159 0.582639 -0.400202 0.869688 0.288931 -0.880318 0.379055 0.285234 -0.851796 -0.47268 0.22587 0.701496 0.410277 0.582731 0.4008 0.869311 0.289238 0.880275 0.378962 0.28549 0.851918 -0.472382 0.226034 0.00003 0.999895 0.014528 0.544618 0.838622 -0.010248 0.97302 0.228741 -0.030154 0.715359 -0.698648 -0.012346 0.837545 -0.483125 -0.255163 0.855206 0.373034 -0.359816 0.692212 -0.461403 -0.554933 0.432707 0.858318 -0.275782 0.531226 0.464058 -0.708837 0.000046 0.915816 -0.401599 0.338179 -0.594076 -0.729869 0.000068 0.374353 -0.927286 0.000057 -0.594414 -0.804159 -0.338107 -0.59408 -0.729899 -0.531176 0.464086 -0.708856 -0.692212 -0.461402 -0.554933 -0.432661 0.85834 -0.275786 -0.855206 0.373034 -0.359816 -0.544509 0.838692 -0.010247 -0.973047 0.228602 -0.030327 -0.837545 -0.483125 -0.255163 -0.715359 -0.698648 -0.012346</float_array>
          <technique_common>
            <accessor source="#GeometrySource1-array" count="635" stride="3">
              <param name="X" type="float"/>
              <param name="Y" type="float"/>
              <param name="Z" type="float"/>
            </accessor>
          </technique_common>
        </source>
        <source id="GeometrySource2" name="kabigon_body.pngUV">
          <float_array id="GeometrySource2-array" count="1270">0.882825 -0.593765 0.902348 -0.546862 0.902348 -0.593765 0.902348 -0.593765 0.902348 -0.546862 0.921871 -0.593765 0.921871 -0.593765 0.902348 -0.546862 0.937495 -0.593765 0.882825 -0.593765 0.902348 -0.546862 0.902348 -0.593765 0.902348 -0.593765 0.902348 -0.546862 0.921871 -0.593765 0.921871 -0.593765 0.902348 -0.546862 0.937495 -0.593765 0.937495 -0.593765 0.921871 -0.593765 0.902348 -0.546862 0.921871 -0.593765 0.902348 -0.593765 0.902348 -0.546862 0.902348 -0.546862 0.902348 -0.593765 0.882825 -0.593765 0.843749 -0.593765 0.890622 -0.546862 0.859373 -0.593765 0.859373 -0.593765 0.890622 -0.546862 0.890622 -0.593765 0.890622 -0.593765 0.890622 -0.546862 0.906246 -0.593765 0.937495 -0.593765 0.921871 -0.593765 0.902348 -0.546862 0.921871 -0.593765 0.902348 -0.593765 0.902348 -0.546862 0.902348 -0.546862 0.902348 -0.593765 0.882825 -0.593765 0.882825 -0.593765 0.902348 -0.593765 0.902348 -0.546862 0.902348 -0.593765 0.921871 -0.593765 0.902348 -0.546862 0.902348 -0.546862 0.921871 -0.593765 0.937495 -0.593765 0.882825 -0.593765 0.902348 -0.593765 0.902348 -0.546862 0.902348 -0.593765 0.921871 -0.593765 0.902348 -0.546862 0.902348 -0.546862 0.921871 -0.593765 0.937495 -0.593765 0.937495 -0.593765 0.902348 -0.546862 0.921871 -0.593765 0.921871 -0.593765 0.902348 -0.546862 0.902348 -0.593765 0.902348 -0.593765 0.902348 -0.546862 0.882825 -0.593765 0.843749 -0.593765 0.859373 -0.593765 0.890622 -0.546862 0.859373 -0.593765 0.890622 -0.593765 0.890622 -0.546862 0.890622 -0.546862 0.890622 -0.593765 0.906246 -0.593765 0.937495 -0.593765 0.902348 -0.546862 0.921871 -0.593765 0.921871 -0.593765 0.902348 -0.546862 0.902348 -0.593765 0.902348 -0.593765 0.902348 -0.546862 0.882825 -0.593765 0.660154 -0.593765 0.667982 -0.55079 0.67188 -0.593765 0.683606 -0.55079 0.703129 -0.535166 0.683606 -0.593765 0.683606 -0.55079 0.703129 -0.535166 0.722652 -0.55079 0.683606 -0.593765 0.722652 -0.593765 0.722652 -0.593765 0.722652 -0.55079 0.734835 -0.593765 0.738276 -0.55079 0.7472 -0.593765 0.660154 -0.593765 0.667982 -0.55079 0.67188 -0.593765 0.683606 -0.55079 0.703129 -0.535166 0.683606 -0.593765 0.683606 -0.55079 0.703129 -0.535166 0.722652 -0.55079 0.683606 -0.593765 0.722652 -0.593765 0.722652 -0.593765 0.722652 -0.55079 0.734835 -0.593765 0.738276 -0.55079 0.7472 -0.593765 0.660154 -0.593765 0.67188 -0.593765 0.667982 -0.55079 0.683606 -0.55079 0.683606 -0.593765 0.703129 -0.535166 0.683606 -0.55079 0.683606 -0.593765 0.722652 -0.55079 0.703129 -0.535166 0.722652 -0.55079 0.738276 -0.55079 0.722652 -0.593765 0.734835 -0.593765 0.722652 -0.593765 0.7472 -0.593765 0.660154 -0.593765 0.67188 -0.593765 0.667982 -0.55079 0.683606 -0.55079 0.683606 -0.593765 0.703129 -0.535166 0.683606 -0.55079 0.683606 -0.593765 0.722652 -0.55079 0.703129 -0.535166 0.722652 -0.55079 0.738276 -0.55079 0.722652 -0.593765 0.734835 -0.593765 0.722652 -0.593765 0.7472 -0.593765 0.660154 -0.593765 0.67188 -0.593765 0.667982 -0.55079 0.683606 -0.55079 0.683606 -0.593765 0.703129 -0.535166 0.683606 -0.55079 0.683606 -0.593765 0.722652 -0.55079 0.703129 -0.535166 0.722652 -0.55079 0.738276 -0.55079 0.722652 -0.593765 0.734835 -0.593765 0.722652 -0.593765 0.7472 -0.593765 0.660154 -0.593765 0.667982 -0.55079 0.67188 -0.593765 0.683606 -0.55079 0.703129 -0.535166 0.683606 -0.593765 0.683606 -0.55079 0.703129 -0.535166 0.722652 -0.55079 0.683606 -0.593765 0.722652 -0.593765 0.722652 -0.593765 0.722652 -0.55079 0.734835 -0.593765 0.738276 -0.55079 0.7472 -0.593765 0.937495 -0.843756 0.937495 -0.953127 0.546885 -0.843756 0.546885 -0.953127 0.937495 -0.953127 0.937495 -0.843756 0.491575 -0.855725 0.402702 -0.952853 0.260072 -0.855725 0.020345 -0.952853 0.020345 -0.855725 0.260072 -0.855725 0.402702 -0.952853 0.491575 -0.855725 0.02266 -0.816893 0.02266 -0.776202 0.118873 -0.816588 0.118873 -0.816588 0.169432 -0.779644 0.246975 -0.817167 0.169432 -0.779644 0.246975 -0.817167 0.02266 -0.741329 0.170681 -0.741329 0.270519 -0.781319 0.317666 -0.817319 0.170681 -0.741329 0.270519 -0.781319 0.317666 -0.817319 0.27661 -0.742517 0.347575 -0.767614 0.407666 -0.817319 0.27661 -0.742517 0.347575 -0.767614 0.407666 -0.817319 0.274082 -0.708222 0.170681 -0.707126 0.24195 -0.664212 0.356559 -0.709776 0.302894 -0.667562 0.407666 -0.764324 0.274082 -0.708222 0.170681 -0.707126 0.24195 -0.664212 0.356559 -0.709776 0.302894 -0.667562 0.407666 -0.764324 0.290529 -0.635126 0.357717 -0.662598 0.407666 -0.706639 0.460174 -0.773339 0.407666 -0.817319 0.480915 -0.81738 0.290529 -0.635126 0.357717 -0.662598 0.407666 -0.706639 0.460174 -0.773339 0.407666 -0.817319 0.480915 -0.81738 0.390702 -0.661623 0.456793 -0.695918 0.390702 -0.661623 0.456793 -0.695918 0.519352 -0.780436 0.480915 -0.81738 0.570002 -0.817319 0.5319 -0.736852 0.570459 -0.778365 0.519352 -0.780436 0.480915 -0.81738 0.5319 -0.736852 0.578256 -0.712425 0.503484 -0.662111 0.417108 -0.647857 0.503484 -0.662111 0.543961 -0.625014 0.485667 -0.584872 0.457128 -0.61274 0.375321 -0.586212 0.417108 -0.647857 0.457128 -0.61274 0.375321 -0.586212 0.32193 -0.54208 0.369077 -0.641095 0.380864 -0.633999 0.354336 -0.589136 0.380864 -0.633999 0.354336 -0.589136 0.347422 -0.641674 0.352509 -0.620567 0.350163 -0.602598 0.26729 -0.569065 0.291899 -0.583806 0.316509 -0.598516 0.270031 -0.595897 0.338925 -0.607897 0.321808 -0.614598 0.306184 -0.624862 0.220904 -0.585237 0.064355 -0.575125 0.149787 -0.63211 0.121828 -0.664212 0.02266 -0.63205 0.02266 -0.664212 0.121828 -0.664212 0.149787 -0.63211 0.220904 -0.585237 0.26729 -0.569065 0.306184 -0.624862 0.270031 -0.595897 0.291899 -0.583806 0.316509 -0.598516 0.321808 -0.614598 0.347422 -0.641674 0.350163 -0.602598 0.338925 -0.607897 0.352509 -0.620567 0.369077 -0.641095 0.105594 -0.017367 0.114579 -0.038169 0.087746 -0.032535 0.094599 -0.052362 0.070294 -0.005824 0.062649 -0.032321 0.038314 -0.00293 0.051655 -0.059123 0.036304 -0.032108 0.003502 -0.060738 0.003502 -0.032017 0.003502 -0.002017 0.038314 -0.00293 0.036304 -0.032108 0.051655 -0.059123 0.062649 -0.032321 0.094599 -0.052362 0.070294 -0.005824 0.087746 -0.032535 0.105594 -0.017367 0.114579 -0.038169 0.179391 -0.527339 0.01334 -0.527339 0.174336 -0.489998 0.334082 -0.527339 0.01334 -0.472455 0.315504 -0.465054 0.153107 -0.459572 0.481463 -0.486252 0.558276 -0.527339 0.288031 -0.419704 0.453748 -0.4141 0.621657 -0.462222 0.672063 -0.527339 0.01334 -0.424029 0.145249 -0.421105 0.616266 -0.377582 0.672977 -0.456039 0.726794 -0.527339 0.388357 -0.341338 0.174336 -0.489998 0.179391 -0.527339 0.334082 -0.527339 0.153107 -0.459572 0.315504 -0.465054 0.01334 -0.36345 0.145249 -0.421105 0.288031 -0.419704 0.162275 -0.355257 0.162275 -0.355257 0.01334 -0.28816 0.289463 -0.353521 0.169158 -0.277561 0.288701 -0.266018 0.678916 -0.35282 0.583464 -0.294587 0.388143 -0.249723 0.481463 -0.486252 0.558276 -0.527339 0.453748 -0.4141 0.621657 -0.462222 0.672063 -0.527339 0.169158 -0.277561 0.01334 -0.215855 0.159747 -0.206962 0.256569 -0.185429 0.289463 -0.353521 0.388357 -0.341338 0.288701 -0.266018 0.159747 -0.206962 0.01334 -0.151043 0.111625 -0.142454 0.217767 -0.11952 0.305331 -0.166454 0.111625 -0.142454 0.256569 -0.185429 0.217767 -0.11952 0.388143 -0.249723 0.305331 -0.166454 0.616266 -0.377582 0.583464 -0.294587 0.672977 -0.456039 0.678916 -0.35282 0.726794 -0.527339 0.42655 -0.175378 0.387473 -0.117479 0.34925 -0.082423 0.387473 -0.117479 0.34925 -0.082423 0.42655 -0.175378 0.569758 -0.248597 0.662165 -0.26818 0.662165 -0.26818 0.718266 -0.455308 0.788439 -0.527339 0.719606 -0.395034 0.443666 -0.108495 0.465017 -0.162221 0.570276 -0.203124 0.714611 -0.275429 0.662165 -0.26818 0.737576 -0.326749 0.799312 -0.398841 0.793678 -0.460455 0.855871 -0.527339 0.492184 -0.062504 0.34925 -0.082423 0.601982 -0.034514 0.508753 -0.075631 0.65254 -0.082941 0.601982 -0.034514 0.499616 -0.149459 0.479819 -0.106515 0.694997 -0.238698 0.768429 -0.243328 0.803881 -0.322577 0.861566 -0.460059 0.865678 -0.398201 0.793678 -0.460455 0.788439 -0.527339 0.855871 -0.317764 0.799312 -0.398841 0.718266 -0.455308 0.719606 -0.395034 0.737576 -0.326749 0.803881 -0.322577 0.855871 -0.243815 0.807018 -0.243815 0.517585 -0.082271 0.525961 -0.088088 0.626895 -0.087814 0.714611 -0.275429 0.768429 -0.243328 0.807018 -0.243815 0.858886 -0.133043 0.81518 -0.142546 0.814053 -0.141906 0.855871 -0.034514 0.750002 -0.034697 0.750002 -0.034697 0.535068 -0.096951 0.601951 -0.090494 0.662165 -0.26818 0.662165 -0.26818 0.694997 -0.238698 0.695302 -0.064971 0.750002 -0.034697 0.601982 -0.034514 0.77251 -0.152962 0.65254 -0.082941 0.72451 -0.144038 0.772327 -0.15284 0.72451 -0.144038 0.664997 -0.132221 0.695302 -0.064971 0.750002 -0.034697 0.662165 -0.26818 0.674286 -0.188079 0.664997 -0.132221 0.626895 -0.087814 0.570428 -0.094606 0.632012 -0.123144 0.674286 -0.188079 0.662165 -0.26818 0.492184 -0.062504 0.601982 -0.034514 0.34925 -0.082423 0.508753 -0.075631 0.632012 -0.123144 0.601951 -0.090494 0.582063 -0.113703 0.608621 -0.114068 0.646449 -0.16152 0.604997 -0.141327 0.639779 -0.211317 0.616753 -0.182779 0.580875 -0.153084 0.553951 -0.118393 0.534093 -0.126799 0.549626 -0.152505 0.561535 -0.177662 0.516489 -0.139043 0.515118 -0.107124 0.662165 -0.26818 0.517585 -0.082271 0.443666 -0.108495 0.525961 -0.088088 0.570428 -0.094606 0.535068 -0.096951 0.479819 -0.106515 0.465017 -0.162221 0.608621 -0.114068 0.582063 -0.113703 0.499616 -0.149459 0.515118 -0.107124 0.646449 -0.16152 0.604997 -0.141327 0.569758 -0.248597 0.662165 -0.26818 0.570276 -0.203124 0.639779 -0.211317 0.662165 -0.26818 0.561535 -0.177662 0.616753 -0.182779 0.580875 -0.153084 0.549626 -0.152505 0.516489 -0.139043 0.534093 -0.126799 0.553951 -0.118393 0.972582 -0.682334 0.984612 -0.716111 0.905912 -0.668324 0.940846 -0.651816 0.883891 -0.631136 0.915292 -0.739928 0.971089 -0.75004 0.937952 -0.780497 0.881333 -0.800476 0.812926 -0.659309 0.812926 -0.771756 0.812926 -0.808883 0.744551 -0.800476 0.710561 -0.739928 0.687931 -0.780497 0.654794 -0.75004 0.641241 -0.716111 0.719972 -0.668324 0.653301 -0.682334 0.685038 -0.651816 0.741992 -0.631136 0.812926 -0.622943 0.092193 -0.674263 0.092193 -0.680872 0.070538 -0.676669 0.113818 -0.676669 0.075381 -0.682791 0.053025 -0.683004 0.108975 -0.682791 0.131361 -0.683004 0.092193 -0.691288 0.062071 -0.687268 0.071117 -0.693603 0.053695 -0.694182 0.041634 -0.692019 0.122285 -0.687299 0.113239 -0.693603 0.13066 -0.694182 0.142721 -0.692019 0.092193 -0.702557 0.115097 -0.702557 0.134254 -0.702557 0.146437 -0.702557 0.142569 -0.713126 0.131117 -0.711238 0.131574 -0.722446 0.113879 -0.710172 0.115645 -0.720649 0.092193 -0.710415 0.114244 -0.729146 0.092193 -0.724212 0.092193 -0.73207 0.070111 -0.729146 0.068741 -0.720618 0.052781 -0.722446 0.070477 -0.710172 0.053238 -0.711238 0.069289 -0.702557 0.050101 -0.702557 0.041786 -0.713126 0.037949 -0.702557 0.972582 -0.682334 0.905912 -0.668324 0.984612 -0.716111 0.940846 -0.651816 0.883891 -0.631136 0.915292 -0.739928 0.971089 -0.75004 0.937952 -0.780497 0.881333 -0.800476 0.812926 -0.659309 0.812926 -0.771756 0.812926 -0.808883 0.744551 -0.800476 0.710561 -0.739928 0.687931 -0.780497 0.654794 -0.75004 0.641241 -0.716111 0.719972 -0.668324 0.653301 -0.682334 0.685038 -0.651816 0.741992 -0.631136 0.812926 -0.622943 0.092193 -0.674263 0.070538 -0.676669 0.092193 -0.680872 0.113818 -0.676669 0.108975 -0.682791 0.131361 -0.683004 0.075381 -0.682791 0.053025 -0.683004 0.092193 -0.691288 0.122285 -0.687299 0.113239 -0.693603 0.13066 -0.694182 0.142721 -0.692019 0.062071 -0.687268 0.071117 -0.693603 0.053695 -0.694182 0.041634 -0.692019 0.092193 -0.702557 0.069289 -0.702557 0.050101 -0.702557 0.037949 -0.702557 0.041786 -0.713126 0.053238 -0.711238 0.052781 -0.722446 0.070477 -0.710172 0.068741 -0.720618 0.092193 -0.710415 0.070111 -0.729146 0.092193 -0.724212 0.092193 -0.73207 0.114244 -0.729146 0.115645 -0.720649 0.131574 -0.722446 0.113879 -0.710172 0.131117 -0.711238 0.115097 -0.702557 0.134254 -0.702557 0.142569 -0.713126 0.146437 -0.702557</float_array>
          <technique_common>
            <accessor source="#GeometrySource2-array" count="635" stride="2">
              <param name="S" type="float"/>
              <param name="T" type="float"/>
            </accessor>
          </technique_common>
        </source>
        <vertices id="Geometry-vertices">
          <input semantic="POSITION" source="#GeometrySource"/>
          <input semantic="NORMAL" source="#GeometrySource1"/>
          <input semantic="TEXCOORD" source="#GeometrySource2"/>
        </vertices>
        <triangles material="VisualMaterial0" count="804">
          <input semantic="VERTEX" source="#Geometry-vertices" offset="0"/>
          <p>0 1 2 3 4 5 6 7 8 9 10 11 12 13 14 15 16 17 18 19 20 21 22 23 24 25 26 27 28 29 30 31 32 33 34 35 36 37 38 39 40 41 42 43 44 45 46 47 48 49 50 51 52 53 54 55 56 57 58 59 60 61 62 63 64 65 66 67 68 69 70 71 72 73 74 75 76 77 78 79 80 81 82 83 84 85 86 87 88 89 90 91 92 92 91 93 91 94 93 92 93 95 96 97 98 96 98 99 99 98 100 101 102 103 102 104 103 102 94 104 103 104 105 106 107 108 108 107 109 107 110 109 108 109 111 112 113 114 112 114 115 115 114 116 117 118 119 118 110 120 118 120 119 119 120 121 122 123 124 124 123 125 123 126 125 124 125 127 128 129 130 128 130 131 127 132 133 129 134 130 132 135 133 132 136 135 135 137 133 138 139 140 140 139 141 139 142 141 140 141 143 144 145 146 144 146 147 143 148 149 145 150 146 148 151 149 148 152 151 151 153 149 154 155 156 156 155 157 155 158 157 156 157 159 160 161 162 160 162 163 159 164 165 161 166 162 164 167 165 164 168 167 167 169 165 170 171 172 172 171 173 171 174 173 172 173 175 176 177 178 176 178 179 179 178 180 181 182 183 182 174 184 182 184 183 183 184 185 186 187 188 187 189 188 189 190 188 188 190 191 192 193 194 193 195 194 194 195 196 196 195 197 195 198 197 197 198 199 200 201 202 200 203 201 201 204 202 202 204 205 201 203 206 203 207 206 201 208 204 201 206 208 208 209 204 204 209 210 204 210 205 205 210 211 208 206 212 206 207 213 206 213 212 207 214 213 210 209 215 210 215 216 210 216 211 211 216 217 213 218 212 213 219 218 213 214 219 214 220 219 215 209 221 209 222 221 222 223 221 215 221 224 215 224 216 221 225 224 221 223 225 216 226 217 216 224 226 218 227 212 212 227 228 228 227 229 218 230 227 218 219 230 227 231 229 227 230 231 219 232 230 219 220 232 225 223 233 225 234 224 225 233 234 224 234 235 224 235 226 226 235 236 226 236 217 237 236 238 231 239 229 231 240 239 231 230 240 230 241 240 230 232 241 232 220 242 232 242 241 243 244 242 235 234 245 235 245 246 235 246 236 241 247 240 241 242 248 241 248 247 236 249 250 238 249 251 236 252 249 236 246 252 249 253 251 249 252 253 251 253 254 251 254 244 255 254 242 242 256 248 254 253 256 254 256 242 253 252 257 253 257 256 256 257 258 256 258 248 248 258 259 248 259 247 252 246 260 252 260 257 257 260 261 257 261 258 261 260 262 261 262 258 258 263 259 258 262 263 263 262 264 263 264 259 246 265 260 246 245 265 260 266 262 260 265 266 266 265 267 266 267 262 262 267 268 262 268 264 247 269 240 247 259 270 247 270 269 259 271 270 259 264 271 265 245 272 265 273 267 265 272 273 269 274 240 269 275 274 269 270 275 270 276 275 270 271 276 264 268 277 264 277 278 264 278 271 271 278 279 271 279 276 278 277 280 278 280 279 276 279 281 276 281 275 279 280 282 279 282 281 275 282 274 281 282 275 274 283 240 282 280 283 282 283 274 283 239 240 280 277 284 283 284 239 280 284 283 277 285 284 277 268 285 284 286 239 284 285 286 239 286 229 229 286 287 286 288 287 286 285 288 287 288 289 289 288 290 288 285 291 288 291 290 290 291 223 223 291 233 291 292 233 291 285 292 285 268 293 285 293 292 268 267 293 233 294 234 292 294 233 292 295 294 292 293 295 293 267 296 293 296 295 267 273 296 296 273 297 296 297 295 295 297 298 295 298 294 294 299 234 294 298 299 273 272 300 297 273 300 297 300 301 297 301 298 301 302 298 300 272 302 300 302 301 298 302 299 302 272 303 302 303 299 303 245 234 245 303 272 299 303 234 304 305 306 305 307 306 304 306 308 306 309 308 306 307 309 308 309 310 307 311 309 309 311 312 309 312 310 311 313 312 312 313 314 312 314 310 310 314 315 315 314 316 314 317 316 314 313 317 313 318 317 317 319 316 317 318 319 318 320 319 316 319 321 319 322 321 319 320 322 321 322 323 323 322 324 324 322 320 325 326 327 325 327 328 327 326 329 327 330 328 327 329 331 327 331 330 330 332 328 328 332 333 330 331 334 330 334 335 330 335 332 332 336 333 332 335 336 333 336 337 331 329 338 331 338 339 331 339 334 335 340 336 336 340 341 336 341 337 337 341 342 335 343 340 335 334 343 329 326 344 326 345 344 345 346 344 329 344 347 329 347 338 344 346 348 344 348 347 339 338 349 338 350 349 338 347 350 347 351 350 347 348 351 350 352 349 350 351 352 339 349 353 339 353 334 349 354 353 349 352 354 334 355 343 334 353 355 353 356 355 353 354 356 355 356 357 355 357 343 340 358 341 340 343 359 340 359 358 343 360 359 343 357 360 348 346 361 346 362 361 348 363 351 348 361 363 361 364 363 361 362 364 362 365 364 352 366 354 354 367 356 354 366 367 356 367 368 356 368 357 357 368 369 357 369 360 352 351 370 352 370 366 351 371 370 351 363 371 370 371 372 370 372 366 366 373 367 366 372 373 367 373 374 367 374 368 368 375 369 374 375 368 375 376 369 369 377 360 369 376 377 374 373 378 373 379 378 373 372 379 378 379 380 372 371 381 372 381 379 379 381 382 379 382 380 363 383 371 363 364 383 371 384 381 371 383 384 364 385 383 364 365 385 383 385 386 383 386 384 365 387 385 377 388 360 377 389 388 377 376 389 376 390 389 382 391 380 380 391 392 382 381 393 382 393 391 381 394 393 381 384 394 384 386 395 384 396 394 385 387 397 387 398 397 385 397 399 385 399 386 393 400 391 393 401 400 393 394 401 394 395 402 394 402 401 386 403 404 386 405 403 386 399 405 399 406 405 399 397 406 397 398 407 397 407 406 398 408 407 391 409 392 410 409 411 391 400 412 391 412 409 409 412 413 409 413 414 401 402 415 401 415 416 401 416 400 403 417 395 403 418 417 403 405 418 405 419 418 405 406 419 407 408 420 407 421 406 407 420 421 420 422 421 420 408 422 408 423 422 406 421 424 406 424 419 421 422 425 421 425 424 422 426 425 423 342 426 342 341 426 422 423 426 426 427 425 426 341 427 341 358 427 427 358 428 427 428 425 425 428 429 425 429 424 424 430 419 424 429 430 419 430 431 419 431 418 412 400 432 400 416 433 400 433 432 432 433 434 412 434 413 432 434 412 428 358 435 428 436 429 428 435 436 429 436 437 429 437 430 430 437 438 430 438 431 437 436 439 437 439 438 431 438 440 431 440 418 438 441 440 438 439 441 441 439 442 441 443 440 433 416 444 433 444 445 433 445 434 435 358 446 358 359 447 435 448 436 435 447 448 439 449 442 450 449 451 439 452 449 439 436 452 449 453 451 449 452 453 436 448 454 452 454 453 452 436 454 440 455 418 455 413 456 418 455 456 456 417 418 434 456 413 434 457 456 456 457 417 434 445 457 455 440 458 440 443 458 455 458 413 413 458 414 414 458 459 448 460 461 448 462 454 448 461 462 454 462 463 454 463 453 445 444 464 445 464 465 445 465 457 457 466 417 457 465 466 417 466 467 390 468 389 453 468 451 469 468 470 468 453 471 453 463 471 468 471 389 462 461 472 462 472 473 462 473 463 464 444 474 464 475 465 464 474 475 465 475 476 465 476 466 475 477 476 475 474 477 466 478 395 466 476 478 476 479 478 476 477 479 477 480 479 477 474 480 474 481 480 474 444 481 481 482 480 481 444 482 480 483 479 480 482 483 479 483 484 415 402 484 478 484 402 479 484 478 483 485 484 483 482 485 485 415 484 485 486 415 482 486 485 416 486 444 482 444 486 415 486 416 402 487 478 471 463 488 471 489 389 471 488 489 389 489 388 463 490 488 488 490 489 463 473 490 473 472 491 473 492 490 473 491 492 490 492 493 490 493 489 489 493 494 489 494 388 491 472 495 491 495 496 491 496 492 493 497 494 493 492 498 493 498 497 472 461 499 495 472 499 495 499 500 495 500 496 494 501 388 388 501 360 360 501 359 359 501 502 494 497 503 501 503 447 501 494 503 447 504 461 461 504 499 505 503 504 503 506 504 503 497 506 504 507 499 499 507 500 504 506 507 500 507 508 500 508 496 507 509 508 507 506 509 506 497 510 497 498 510 506 510 509 510 498 511 498 492 511 510 511 509 509 511 508 511 512 508 512 492 496 512 511 492 512 496 508 513 514 515 513 515 516 516 515 517 515 514 518 514 519 518 519 520 518 520 521 518 515 518 522 515 522 517 518 523 522 518 521 523 521 524 523 524 525 523 523 525 526 523 526 522 525 527 526 527 528 526 528 529 526 526 529 530 526 530 522 529 531 530 531 532 530 530 533 522 530 532 533 522 534 517 533 534 522 535 536 537 535 538 536 536 539 537 537 539 540 536 538 541 538 542 541 536 541 543 536 543 539 539 544 540 539 543 545 539 545 544 544 545 546 544 546 540 540 546 547 541 542 548 541 549 543 541 548 549 548 550 549 548 542 550 542 551 550 543 552 545 543 549 552 549 553 552 549 550 553 550 554 553 550 551 554 551 555 554 555 556 554 554 556 557 554 557 553 556 558 557 553 557 559 553 559 552 557 558 560 557 560 559 559 560 561 559 561 552 558 562 560 560 562 563 560 563 561 562 564 563 564 565 563 563 565 566 563 566 561 565 567 566 561 568 552 561 566 568 566 569 568 566 567 569 568 570 552 545 570 546 545 552 570 568 569 570 546 571 547 570 569 571 570 571 546 569 572 571 569 567 572 571 573 547 573 571 572 574 575 576 574 577 575 577 578 575 575 579 576 576 579 580 580 579 581 581 579 582 575 583 579 575 578 583 579 583 584 579 584 582 582 584 585 585 584 586 584 587 586 584 583 587 586 587 588 588 587 589 589 587 590 587 591 590 587 583 591 590 591 592 592 591 593 593 591 594 591 583 594 595 583 578 594 583 595 596 597 598 596 598 599 599 598 600 599 600 601 598 597 602 597 603 602 598 602 604 598 604 600 600 605 601 600 604 606 600 606 605 605 606 607 605 607 601 601 607 608 602 603 609 602 610 604 602 609 610 609 611 610 609 603 611 603 612 611 604 610 613 604 613 606 610 611 614 610 614 613 611 615 614 611 612 615 612 616 615 616 617 615 615 618 614 615 617 618 617 619 618 614 618 620 614 620 613 618 621 620 618 619 621 620 622 613 620 621 622 619 623 621 621 623 624 621 624 622 623 625 624 625 626 624 624 627 622 624 626 627 626 628 627 622 627 629 622 629 613 627 628 630 627 630 629 606 631 607 606 613 631 629 630 631 629 631 613 631 632 607 607 632 608 631 630 632 630 633 632 630 628 633 634 632 633 632 634 608</p>
        </triangles>
      </mesh>
    </geometry>
  </library_geometries>
  <library_controllers>
    <controller id="Controller">
      <skin source="#Geometry">
        <bind_shape_matrix>1 0 0 0 0 1 0 0 0 0 1 0 0 0 0 1</bind_shape_matrix>
        <source id="Controller-joints">
          <Name_array id="Controller-joints-array" count="9">TransN RotN HipN Bust1N HeadN null19 null20 LShoulderN RShoulderN</Name_array>
          <technique_common>
            <accessor source="#Controller-joints-array" count="9" stride="1">
              <param name="JOINT" type="Name"/>
            </accessor>
          </technique_common>
        </source>
        <source id="Controller-bind_poses">
          <float_array id="Controller-bind_poses-array" count="144">1 0 0 0 0 1 0.000000 0 0 -0.000000 1 0 0 0 0 1 1 0 0 0 0 1 0.000000 -4.18038 0 -0.000000 1 0 0 0 0 1 -0.000003 1 0.000000 -4.18038 0.000003 -0.000000 1 0 1 0.000003 -0.000003 -0.000015 0 0 0 1 -0.000003 1 0.000000 -9.33121 0.000003 -0.000000 1 0 1 0.000003 -0.000003 -0.000015 0 0 0 1 -0.000003 1 0.000000 -15.1114 0.000003 -0.000000 1 -0.004984 1 0.000003 -0.000003 -0.000015 0 0 0 1 0.882336 -0.46866 0.042896 6.10262 0.000002 0.091153 0.995837 -1.36302 -0.470619 -0.878663 0.080429 17.9674 0 0 0 1 -0.882333 -0.468666 0.042903 6.10264 0.000002 0.091158 0.995836 -1.36311 -0.470626 0.878659 -0.08043 -17.9674 0 0 0 1 1 0.000007 -0.000003 -6.12881 0.000003 -0.000000 1 -0.089715 0.000007 -1 -0.000000 11.7535 0 0 0 1 -1 0 0.000003 -6.12878 0.000003 -0.000000 1 -0.089712 0 1 0.000000 -11.7535 0 0 0 1</float_array>
          <technique_common>
            <accessor source="#Controller-bind_poses-array" count="9" stride="16">
              <param name="TRANSFORM" type="float4x4"/>
            </accessor>
          </technique_common>
        </source>
        <source id="Controller-weights">
          <float_array id="Controller-weights-array" count="1">1</float_array>
          <technique_common>
            <accessor source="#Controller-weights-array" count="1" stride="1">
              <param name="WEIGHT" type="float"/>
            </accessor>
          </technique_common>
        </source>
        <joints>
          <input semantic="JOINT" source="#Controller-joints"/>
          <input semantic="INV_BIND_MATRIX" source="#Controller-bind_poses"/>
        </joints>
        <vertex_weights count="635">
          <input semantic="JOINT" source="#Controller-joints" offset="0"/>
          <input semantic="WEIGHT" source="#Controller-weights" offset="1"/>
          <vcount>1 1 1 1 1 1 1 1 1 1 1 1 1 1 1 1 1 1 1 1 1 1 1 1 1 1 1 1 1 1 1 1 1 1 1 1 1 1 1 1 1 1 1 1 1 1 1 1 1 1 1 1 1 1 1 1 1 1 1 1 1 1 1 1 1 1 1 1 1 1 1 1 1 1 1 1 1 1 1 1 1 1 1 1 1 1 1 1 1 1 1 1 1 1 1 1 1 1 1 1 1 1 1 1 1 1 1 1 1 1 1 1 1 1 1 1 1 1 1 1 1 1 1 1 1 1 1 1 1 1 1 1 1 1 1 1 1 1 1 1 1 1 1 1 1 1 1 1 1 1 1 1 1 1 1 1 1 1 1 1 1 1 1 1 1 1 1 1 1 1 1 1 1 1 1 1 1 1 1 1 1 1 1 1 1 1 1 1 1 1 1 1 1 1 1 1 1 1 1 1 1 1 1 1 1 1 1 1 1 1 1 1 1 1 1 1 1 1 1 1 1 1 1 1 1 1 1 1 1 1 1 1 1 1 1 1 1 1 1 1 1 1 1 1 1 1 1 1 1 1 1 1 1 1 1 1 1 1 1 1 1 1 1 1 1 1 1 1 1 1 1 1 1 1 1 1 1 1 1 1 1 1 1 1 1 1 1 1 1 1 1 1 1 1 1 1 1 1 1 1 1 1 1 1 1 1 1 1 1 1 1 1 1 1 1 1 1 1 1 1 1 1 1 1 1 1 1 1 1 1 1 1 1 1 1 1 1 1 1 1 1 1 1 1 1 1 1 1 1 1 1 1 1 1 1 1 1 1 1 1 1 1 1 1 1 1 1 1 1 1 1 1 1 1 1 1 1 1 1 1 1 1 1 1 1 1 1 1 1 1 1 1 1 1 1 1 1 1 1 1 1 1 1 1 1 1 1 1 1 1 1 1 1 1 1 1 1 1 1 1 1 1 1 1 1 1 1 1 1 1 1 1 1 1 1 1 1 1 1 1 1 1 1 1 1 1 1 1 1 1 1 1 1 1 1 1 1 1 1 1 1 1 1 1 1 1 1 1 1 1 1 1 1 1 1 1 1 1 1 1 1 1 1 1 1 1 1 1 1 1 1 1 1 1 1 1 1 1 1 1 1 1 1 1 1 1 1 1 1 1 1 1 1 1 1 1 1 1 1 1 1 1 1 1 1 1 1 1 1 1 1 1 1 1 1 1 1 1 1 1 1 1 1 1 1 1 1 1 1 1 1 1 1 1 1 1 1 1 1 1 1 1 1 1 1 1 1 1 1 1 1 1 1 1 1 1 1 1 1 1 1 1 1 1 1 1 1 1 1 1 1 1 1 1 1 1 1 1 1 1 1 1 1 1 1 1 1 1 1 1 1 1 1 1 1 1 1 1 1 1 1 1 1 1 1 1 1 1 1 1 1 1 1 1 1 </vcount>
          <v>8 0 8 0 8 0 8 0 8 0 8 0 8 0 8 0 8 0 8 0 8 0 8 0 8 0 8 0 8 0 8 0 8 0 8 0 8 0 8 0 8 0 8 0 8 0 8 0 8 0 8 0 8 0 8 0 8 0 8 0 8 0 8 0 8 0 8 0 8 0 8 0 8 0 8 0 8 0 8 0 8 0 8 0 8 0 8 0 8 0 7 0 7 0 7 0 7 0 7 0 7 0 7 0 7 0 7 0 7 0 7 0 7 0 7 0 7 0 7 0 7 0 7 0 7 0 7 0 7 0 7 0 7 0 7 0 7 0 7 0 7 0 7 0 7 0 7 0 7 0 7 0 7 0 7 0 7 0 7 0 7 0 7 0 7 0 7 0 7 0 7 0 7 0 7 0 7 0 7 0 2 0 2 0 2 0 2 0 2 0 2 0 2 0 2 0 2 0 2 0 2 0 2 0 2 0 2 0 2 0 2 0 2 0 2 0 2 0 2 0 2 0 2 0 2 0 2 0 2 0 2 0 2 0 2 0 2 0 2 0 2 0 2 0 2 0 2 0 2 0 2 0 2 0 2 0 2 0 2 0 2 0 2 0 2 0 2 0 2 0 2 0 2 0 2 0 2 0 2 0 2 0 2 0 2 0 2 0 2 0 2 0 2 0 2 0 2 0 2 0 2 0 2 0 2 0 2 0 2 0 2 0 2 0 2 0 2 0 2 0 2 0 2 0 2 0 2 0 2 0 2 0 2 0 2 0 2 0 2 0 2 0 2 0 2 0 2 0 2 0 2 0 2 0 2 0 2 0 2 0 2 0 2 0 2 0 2 0 2 0 2 0 4 0 4 0 4 0 4 0 4 0 4 0 4 0 4 0 4 0 4 0 4 0 4 0 4 0 4 0 3 0 4 0 3 0 3 0 4 0 3 0 4 0 3 0 4 0 4 0 4 0 3 0 4 0 4 0 3 0 4 0 4 0 3 0 4 0 4 0 3 0 4 0 4 0 4 0 4 0 4 0 4 0 4 0 4 0 4 0 4 0 4 0 4 0 4 0 4 0 4 0 4 0 3 0 3 0 4 0 4 0 4 0 4 0 3 0 3 0 4 0 4 0 4 0 4 0 4 0 3 0 3 0 4 0 4 0 4 0 3 0 4 0 4 0 4 0 4 0 4 0 4 0 4 0 4 0 4 0 4 0 4 0 4 0 4 0 5 0 5 0 5 0 6 0 6 0 5 0 5 0 5 0 4 0 5 0 5 0 5 0 5 0 5 0 5 0 4 0 4 0 4 0 4 0 4 0 4 0 4 0 4 0 4 0 4 0 6 0 6 0 6 0 6 0 6 0 6 0 6 0 6 0 6 0 6 0 2 0 2 0 2 0 2 0 2 0 2 0 2 0 2 0 2 0 2 0 2 0 2 0 2 0 2 0 2 0 2 0 2 0 2 0 2 0 2 0 2 0 2 0 2 0 2 0 2 0 2 0 2 0 2 0 2 0 2 0 2 0 2 0 2 0 2 0 2 0 2 0 2 0 2 0 2 0 3 0 2 0 2 0 2 0 2 0 2 0 2 0 2 0 2 0 2 0 2 0 3 0 2 0 3 0 3 0 3 0 3 0 3 0 2 0 2 0 2 0 2 0 2 0 3 0 3 0 3 0 3 0 2 0 3 0 3 0 3 0 3 0 3 0 3 0 3 0 3 0 3 0 3 0 3 0 3 0 2 0 3 0 2 0 3 0 2 0 8 0 3 0 3 0 3 0 3 0 7 0 3 0 3 0 3 0 2 0 2 0 2 0 7 0 7 0 7 0 3 0 3 0 3 0 2 0 2 0 2 0 3 0 3 0 3 0 3 0 3 0 3 0 7 0 7 0 3 0 3 0 3 0 2 0 2 0 2 0 2 0 3 0 2 0 2 0 2 0 3 0 3 0 3 0 3 0 7 0 7 0 7 0 3 0 3 0 3 0 3 0 3 0 3 0 3 0 3 0 3 0 7 0 7 0 3 0 3 0 3 0 3 0 3 0 3 0 3 0 3 0 3 0 3 0 3 0 7 0 3 0 3 0 3 0 8 0 8 0 8 0 7 0 7 0 7 0 3 0 3 0 3 0 3 0 3 0 8 0 8 0 7 0 7 0 7 0 7 0 7 0 7 0 7 0 7 0 7 0 7 0 7 0 7 0 7 0 3 0 8 0 8 0 8 0 8 0 8 0 8 0 8 0 8 0 8 0 8 0 8 0 8 0 8 0 3 0 3 0 8 0 8 0 3 0 8 0 8 0 8 0 8 0 8 0 8 0 8 0 2 0 2 0 2 0 2 0 2 0 2 0 2 0 2 0 2 0 2 0 2 0 2 0 2 0 2 0 2 0 2 0 2 0 2 0 2 0 2 0 2 0 2 0 2 0 2 0 2 0 2 0 2 0 2 0 2 0 2 0 2 0 2 0 2 0 2 0 2 0 2 0 2 0 2 0 2 0 2 0 2 0 2 0 2 0 2 0 2 0 2 0 2 0 2 0 2 0 2 0 2 0 2 0 2 0 2 0 2 0 2 0 2 0 2 0 2 0 2 0 2 0 2 0 2 0 2 0 2 0 2 0 2 0 2 0 2 0 2 0 2 0 2 0 2 0 2 0 2 0 2 0 2 0 2 0 2 0 2 0 2 0 2 0 2 0 2 0 2 0 2 0 2 0 2 0 2 0 2 0 2 0 2 0 2 0 2 0 2 0 2 0 2 0 2 0 2 0 2 0 2 0 2 0 2 0 2 0 2 0 2 0 2 0 2 0 2 0 2 0 2 0 2 0 2 0 2 0 2 0 2 0 2 0 2 0 2 0 2 0 2 0 2 0</v>
        </vertex_weights>
      </skin>
      <extra>
        <technique profile="FCOLLADA">
          <user_properties>SkinController</user_properties>
        </technique>
      </extra>
    </controller>
  </library_controllers>
  <library_visual_scenes>
    <visual_scene id="VisualSceneNode" name="rdmscene">
      <node id="VisualSceneNode1" name="TransN" sid="TransN" type="JOINT">
        <matrix>1 0 0 0 0 1 -0.000000 0 0 0.000000 1 0 0 0 0 1</matrix>
        <node id="VisualSceneNode2" name="RotN" sid="RotN" type="JOINT">
          <matrix>1 0 0 0 0 1 0 4.18038 0 0 1 0 0 0 0 1</matrix>
          <node id="VisualSceneNode3" name="HipN" sid="HipN" type="JOINT">
            <matrix>-0.000003 0.000003 1 0 1 0 0.000003 0 0 1 -0.000003 0 0 0 0 1</matrix>
            <node id="VisualSceneNode4" name="Bust1N" sid="Bust1N" type="JOINT">
              <matrix>1 0 0 5.15083 0 1 0 0 0 0 1 0 0 0 0 1</matrix>
              <node id="VisualSceneNode5" name="HeadN" sid="HeadN" type="JOINT">
                <matrix>1 0 0 5.78015 0 1 0 0.004984 0 0 1 0 0 0 0 1</matrix>
                <node id="VisualSceneNode6" name="null19" sid="null19" type="JOINT">
                  <matrix>-0.468663 0.091153 -0.878661 3.66022 0.0429 0.995837 0.080427 -0.354516 0.882335 -0.000001 -0.470623 3.0713 0 0 0 1</matrix>
                </node>
                <node id="VisualSceneNode7" name="null20" sid="null20" type="JOINT">
                  <matrix>-0.468663 0.091158 0.878661 3.66022 0.0429 0.995836 -0.080432 -0.354516 -0.882335 -0.000001 -0.470623 -3.0713 0 0 0 1</matrix>
                </node>
              </node>
              <node id="VisualSceneNode8" name="LShoulderN" sid="LShoulderN" type="JOINT">
                <matrix>0.000003 0 -1 2.42236 0 1 0 0.089715 1 0 0.000003 6.12875 0 0 0 1</matrix>
              </node>
              <node id="VisualSceneNode9" name="RShoulderN" sid="RShoulderN" type="JOINT">
                <matrix>0.000003 0 1 2.42236 0 1 0 0.089712 -1 0 0.000003 -6.12875 0 0 0 1</matrix>
              </node>
            </node>
          </node>
        </node>
      </node>
      <node id="VisualSceneNode10" name="kabigon_body_png" type="NODE">
        <matrix>1 0 0 0 0 1 0 0 0 0 1 0 0 0 0 1</matrix>
        <instance_controller url="#Controller">
          <skeleton>#VisualSceneNode1</skeleton>
          <bind_material>
            <technique_common>
              <instance_material symbol="VisualMaterial0" target="#VisualMaterial"/>
            </technique_common>
          </bind_material>
        </instance_controller>
      </node>
    </visual_scene>
  </library_visual_scenes>
  <scene>
    <instance_visual_scene url="#VisualSceneNode"/>
  </scene>
</COLLADA>
